<?xml version="1.0" encoding="UTF-8" standalone="no"?>
<!-- Created with Inkscape (http://www.inkscape.org/) -->

<svg
   xmlns:dc="http://purl.org/dc/elements/1.1/"
   xmlns:cc="http://creativecommons.org/ns#"
   xmlns:rdf="http://www.w3.org/1999/02/22-rdf-syntax-ns#"
   xmlns:svg="http://www.w3.org/2000/svg"
   xmlns="http://www.w3.org/2000/svg"
   xmlns:sodipodi="http://sodipodi.sourceforge.net/DTD/sodipodi-0.dtd"
   xmlns:inkscape="http://www.inkscape.org/namespaces/inkscape"
   width="1000"
   height="240"
   id="svg2"
   version="1.1"
   inkscape:version="0.48.4 r9939"
   sodipodi:docname="features.svg">
  <defs
     id="defs4">
    <clipPath
       clipPathUnits="userSpaceOnUse"
       id="clipPath3020">
      <path
         inkscape:connector-curvature="0"
         d="m 0,0 4802,0 0,1298.75 -4802,0 L 0,0 z"
         id="path3022" />
    </clipPath>
  </defs>
  <sodipodi:namedview
     id="base"
     pagecolor="#ffffff"
     bordercolor="#666666"
     borderopacity="1.0"
     inkscape:pageopacity="0.0"
     inkscape:pageshadow="2"
     inkscape:zoom="1"
     inkscape:cx="445.30655"
     inkscape:cy="127.08518"
     inkscape:document-units="px"
     inkscape:current-layer="g3315"
     showgrid="false"
     inkscape:window-width="1920"
     inkscape:window-height="1025"
     inkscape:window-x="0"
     inkscape:window-y="30"
     inkscape:window-maximized="1"
     showguides="true"
     inkscape:guide-bbox="true" />
  <metadata
     id="metadata7">
    <rdf:RDF>
      <cc:Work
         rdf:about="">
        <dc:format>image/svg+xml</dc:format>
        <dc:type
           rdf:resource="http://purl.org/dc/dcmitype/StillImage" />
        <dc:title />
      </cc:Work>
    </rdf:RDF>
  </metadata>
  <g
     inkscape:label="Layer 1"
     inkscape:groupmode="layer"
     id="layer1"
     transform="translate(0,-812.36218)">
    <g
       id="g6"
       transform="matrix(0.19387755,0,0,0.19387755,148.06122,820.42339)" />
    <g
       id="g3043"
       transform="translate(-21.858848,-0.46600515)">
      <g
         id="g3315"
         transform="translate(-59.999995,45.94731)">
        <g
           id="g3044"
           transform="matrix(1.1268675,0,0,1.1268675,-186.50573,-135.84569)">
          <g
             id="g3258">
            <path
               style="fill:#cccccc"
               inkscape:connector-curvature="0"
               d="m 264.81569,877.98868 v -26.16343 h -7.24562 v -7.15243 l 7.24562,-0.97268 v -8.92306 l 15.63283,-2.19582 v 11.1247 h 10.36752 v 8.15423 h -10.36752 v 24.81217 c 0,4.65956 1.29885,7.04758 5.88269,7.04758 1.63085,0 3.85579,-0.17473 4.99156,-0.4077 v 6.05159 c -2.50452,1.47941 -7.86301,2.7375 -12.81379,2.7375 -9.31913,0 -13.68746,-4.10625 -13.68746,-14.11265 z m 104.22855,-30.13571 c 3.92568,0 6.04579,0.69893 6.04579,14.57278 l -13.10502,0.76882 c 0.17474,-12.5808 2.07351,-15.3416 7.05923,-15.3416 z m -6.93109,20.9855 h 28.17869 c 0,-19.83808 -6.81461,-26.16344 -20.9855,-26.16344 -14.0777,0 -23.31527,9.06286 -23.31527,24.62579 0,16.07548 8.37556,24.96941 24.61412,24.96941 8.72504,0 15.77262,-3.90237 17.96261,-6.87285 v -4.60131 c -3.27916,0.99016 -6.65152,1.63084 -12.6973,1.63084 -8.53282,0 -12.93028,-4.42658 -13.75735,-13.62921 z m -69.43911,17.96261 5.00903,-2.30649 v -51.4299 l -5.27113,-2.44627 v -4.29261 l 19.48861,-3.14522 h 1.32215 v 25.73243 h 0.52421 c 4.25185,-3.84413 9.95981,-6.2438 16.30846,-6.2438 7.9795,0 11.94012,3.97226 11.94012,12.63905 v 29.1805 l 5.06728,2.31231 v 4.35086 h -25.80232 v -4.35086 l 5.06727,-2.31231 v -25.64506 c 0,-4.79934 -2.0968,-6.59327 -6.34865,-6.59327 -2.32979,0 -4.54308,0.42518 -6.46514,1.19983 v 31.04432 l 5.06727,2.31814 v 4.35086 h -25.86639 v -4.36834 z"
               id="path3009" />
            <path
               style="fill:#999999"
               inkscape:connector-curvature="0"
               d="m 634.66834,845.75617 v 4.29844 l 5.26531,2.44628 v 32.03448 l -5.02068,2.32978 v 4.36834 h 25.76154 v -4.3101 l -5.02067,-2.32978 v -41.93605 h -1.32215 l -19.66335,3.13938 z m 53.41021,36.25721 v -12.77302 l -3.65775,0.34946 c -3.64029,0.34947 -6.6224,2.76662 -6.6224,7.29222 0,5.21288 2.86563,6.93109 5.8827,6.93109 1.74733,0 3.52378,-0.86201 4.39163,-1.80558 z m -11.08975,-32.98969 -3.31993,9.64529 h -8.13095 v -12.40609 c 4.39165,-1.36292 9.74432,-3.58786 18.03251,-3.58786 12.60994,0 20.18754,3.72765 20.18754,14.32816 v 27.4914 l 5.00903,2.32979 v 3.56456 c -1.53765,0.82707 -5.02067,1.88129 -8.82403,1.88129 -4.92167,0 -9.3366,-1.57259 -10.06466,-6.69811 h -0.46596 c -2.09679,4.1936 -7.68827,6.75636 -13.57097,6.75636 -8.3872,0 -13.68746,-5.41673 -13.68746,-13.27974 0,-9.66859 6.34866,-11.2412 16.71618,-13.39625 l 9.0279,-1.5726 v -6.16809 c 0,-6.06908 -1.86382,-9.08614 -7.86301,-9.08614 -0.81543,0 -2.27154,0.10483 -3.20345,0.19803 z m 33.05958,37.78321 5.00903,-2.27153 v -32.03448 l -5.27113,-2.44628 v -4.25184 l 19.49444,-3.08696 h 1.32215 v 6.29041 h 0.52421 c 4.25184,-3.84415 9.9598,-6.23217 16.30845,-6.23217 7.97951,0 11.94013,3.96063 11.94013,12.63906 v 29.1805 l 5.06727,2.32978 v 4.36834 h -25.80232 v -4.31009 l 5.06728,-2.28318 v -25.85475 c 0,-4.79934 -2.0968,-6.59327 -6.34866,-6.59327 -2.32977,0 -4.54307,0.42518 -6.46513,1.19983 v 31.04432 l 5.00903,2.31814 v 4.35086 h -25.74408 v -4.36834 z m -97.26833,-53.70143 -5.25366,-2.38803 v -4.3101 l 19.6517,-3.14521 h 1.32215 v 59.81712 l 5.00904,2.7375 v 4.07712 l -18.63825,2.15504 h -1.28139 v -4.89254 h -0.52419 c -1.98031,2.50451 -5.99918,5.12551 -11.88188,5.12551 -8.62019,0 -18.92947,-5.47498 -18.92947,-23.58903 0,-19.04595 10.54226,-25.9188 23.06483,-25.9188 2.62101,0 5.70796,0.58245 7.63003,1.98032 v -11.6489 z m 0,49.7408 v -31.98205 c -1.22313,-0.93192 -2.50451,-1.70657 -5.35849,-1.70657 -4.91584,0 -8.67844,4.42658 -8.67844,17.76458 0,11.68385 2.97048,16.77441 9.19099,16.77441 2.41715,0 3.77424,-0.48925 4.83429,-0.92026 z m -194.96767,24.05499 c -8.58525,0 -11.53242,-3.02872 -11.53242,-6.29041 0,-2.27154 0.60575,-3.84413 1.81723,-5.30025 h 16.61716 c 3.88491,0 5.64971,1.1649 5.64971,3.61115 0.0116,4.89255 -2.70837,7.97951 -12.55168,7.97951 z m 0.13396,-58.71047 c 3.43643,0 5.64972,1.51435 5.64972,10.94997 0,9.43561 -2.21912,10.41994 -5.5973,10.41994 -3.37818,0 -5.55653,-0.7863 -5.55653,-10.40829 0,-9.61034 2.15505,-10.94997 5.57983,-10.94997 z m 10.42576,32.79167 h -16.8909 c -1.80559,0 -3.31994,-1.39788 -3.31994,-3.02872 0,-1.28138 0.93191,-2.621 2.0968,-3.49467 2.56276,0.75717 4.65956,0.99015 7.80477,0.99015 12.1731,0 20.50206,-5.53323 20.50206,-15.8425 0,-4.60132 -1.92207,-7.22232 -4.95079,-9.90158 v -0.34946 l 7.80477,2.7375 1.04841,0.0583 v -9.49967 h -0.87367 l -12.01584,2.38802 h -0.66982 c -2.99377,-1.10665 -7.16408,-2.27154 -10.94996,-2.27154 -12.17311,0 -20.59527,6.03997 -20.59527,16.29681 0,6.24964 3.14521,10.90337 7.84554,13.47779 v 0.49507 c -2.71419,1.91043 -7.92125,5.83611 -7.92125,10.8626 0,3.66941 2.42297,7.29804 7.49024,8.38722 v 0.50672 c -5.32937,1.10665 -11.29943,2.85399 -11.29943,8.96965 0,6.29042 9.11527,10.94997 23.97344,10.94997 18.46351,0 26.45465,-7.10582 26.45465,-18.34701 0,-9.26089 -5.12551,-13.57097 -15.55128,-13.57097 z m 118.2946,-35.17969 v 4.31008 l 5.30025,2.44628 v 32.03448 l -5.00902,2.32978 v 4.36834 h 27.13611 v -4.31009 l -6.46513,-2.32978 v -26.3906 c 2.67924,-1.28137 6.20304,-1.71238 10.42576,-1.71238 1.38622,0 3.02871,0.17473 3.9781,0.42519 v -13.79813 c -0.52419,-0.17473 -1.55513,-0.25628 -2.32977,-0.25628 -5.18377,0 -9.41814,3.33741 -12.18476,9.66859 h -0.46595 v -9.97146 h -1.33962 l -19.04597,3.13356 z m -21.66695,36.28633 v -12.8138 l -3.61116,0.34947 c -3.61117,0.34946 -6.58163,2.79574 -6.58163,7.33881 0,5.242 2.85398,6.9311 5.88269,6.9311 1.74734,0 3.52962,-0.87367 4.39164,-1.80558 z m -11.1247,-33.02464 -3.31994,9.66859 h -8.15423 v -12.47016 c 4.42658,-1.36292 9.78508,-3.58786 18.0558,-3.58786 12.63905,0 20.21084,3.72765 20.21084,14.32816 v 27.4914 l 5.00903,2.32979 v 3.56456 c -1.51436,0.82707 -5.00903,1.88129 -8.79492,1.88129 -4.89254,0 -9.31913,-1.57259 -10.01806,-6.69811 h -0.46596 c -2.0968,4.1936 -7.68827,6.75636 -13.53602,6.75636 -8.36974,0 -13.62921,-5.41673 -13.62921,-13.27974 0,-9.66859 6.38942,-11.2412 16.75112,-13.39625 l 9.07449,-1.5726 v -6.16809 c 0,-6.06908 -1.82888,-9.08614 -7.86301,-9.08614 -0.78629,0 -2.27153,0.10483 -3.21509,0.19803 z m -64.88439,3.43643 -5.242,-2.44628 v -4.25184 l 19.68664,-3.08696 h 1.33962 v 33.25179 c 0,5.38761 2.63848,6.34865 6.61075,6.34865 2.91223,0 4.07712,-0.5242 5.64972,-1.12412 v -28.69707 l -5.30025,-2.44627 v -4.29262 l 19.6284,-3.13356 h 1.28138 v 40.42169 l 5.24201,2.73749 v 4.10042 l -19.1042,2.0968 h -1.37458 l -0.0175,-6.2904 h -0.5242 c -3.01707,3.72764 -7.99697,6.46514 -14.3864,6.46514 -9.49385,0 -13.5535,-6.75637 -13.5535,-14.96884 v -24.68985 z m 198.49147,-29.36106 c 4.65956,0 8.41633,3.76842 8.41633,8.42215 0,4.64791 -3.76842,8.42216 -8.42215,8.42216 -4.65957,0 -8.44546,-3.72765 -8.44546,-8.38721 0,-4.65956 3.78589,-8.38721 8.44546,-8.38721 z m 114.45046,65.44353 10.04136,0.0234"
               id="path3011" />
          </g>
          <path
             inkscape:connector-curvature="0"
             id="rect3034"
             d="m 282.26735,909.9758 0,80.64612 80.64606,0 0,-80.64612 -80.64606,0 z m 4.68874,4.68871 71.26855,0 0,71.26861 -71.26855,0 0,-71.26861 z m 16.90283,10.29176 15.56654,30.82832 0,17.47722 6.32977,0 0,-17.47722 15.54314,-30.82832 -6.88071,0 -11.83901,23.20917 -11.38186,-23.20917 -7.33787,0 z"
             style="fill:#cccccc;fill-opacity:1;stroke:none" />
          <path
             inkscape:connector-curvature="0"
             id="path3132"
             d="m 633.3981,949.84579 0,-28.50804 116.88298,0 116.88292,0 0,28.50804 0,28.50782 -116.88292,0 -116.88298,0 0,-28.50782 z m 21.38104,0 0,-19.00539 -5.93918,0 -5.93917,0 0,19.00539 0,19.0052 5.93917,0 5.93918,0 0,-19.0052 z m 23.94452,18.4113 c -0.9777,-1.69093 -12.14132,-17.93616 -12.32561,-17.93616 -0.11865,0 -0.2157,4.16922 -0.2157,9.26493 l 0,9.26513 6.44236,0 c 5.02026,0 6.36655,-0.131 6.09895,-0.5939 z m 27.4412,-0.79989 c 5.5209,-1.73097 10.18548,-5.41008 13.04442,-10.28844 2.39384,-4.08493 3.08971,-7.66985 3.38106,-17.41961 l 0.2662,-8.90875 -5.95285,0 -5.95275,0 -0.17585,8.43361 c -0.16801,8.05991 -0.23379,8.55198 -1.48342,11.10449 -1.3055,2.66656 -3.39555,4.56623 -6.16765,5.6056 l -1.30661,0.49002 0,-12.81686 0,-12.81686 -5.93917,0 -5.93919,0 0,19.07588 0,19.07579 6.53309,-0.27218 c 4.67119,-0.19453 7.43358,-0.55444 9.69272,-1.26269 z m 48.39237,-3.83262 0,-5.22651 -8.31481,0 -8.31487,0 0,-1.90045 0,-1.90065 7.60219,0 7.6021,0 0,-4.9888 0,-4.98889 -7.6021,0 -7.60219,0 0,-1.66293 0,-1.66303 8.31487,0 8.31481,0 0,-5.22651 0,-5.22641 -14.25401,0 -14.254,0 0,19.00539 0,19.0052 14.254,0 14.25401,0 0,-5.22641 z m 16.62972,-0.23752 0,-5.46413 1.31781,0 c 1.17967,0 1.64051,0.56032 4.39783,5.34527 l 3.07993,5.34527 6.53032,0.13217 c 3.59168,0.0734 6.53032,0.0362 6.53032,-0.0803 0,-0.11651 -1.69063,-2.9408 -3.75694,-6.27616 l -3.75684,-6.0639 2.27836,-2.04848 c 2.92436,-2.62927 3.91507,-5.06712 3.92623,-9.66214 0.0157,-6.07751 -2.40898,-10.10947 -7.4808,-12.44384 -2.23166,-1.02694 -3.06005,-1.10232 -13.66012,-1.24311 l -11.2845,-0.1499 0,19.03644 0,19.03633 5.93923,0 5.93926,0 0,-5.46403 z m 0,-18.76778 0,-3.8011 3.26193,0 c 4.20868,0 5.76558,1.03575 5.76558,3.83566 0,2.97037 -1.1548,3.76654 -5.46403,3.76654 l -3.56348,0 0,-3.8011 z m 44.59251,23.7273 c 5.89707,-1.26475 8.81838,-5.0212 8.84511,-11.37392 0.0127,-3.04096 -0.17515,-3.88687 -1.28149,-5.76872 -0.71305,-1.21295 -2.23656,-2.82811 -3.38558,-3.58923 -1.95166,-1.29265 -3.38676,-1.80382 -10.426,-3.71328 -2.99445,-0.81222 -3.88657,-1.87 -2.45832,-2.91436 0.65587,-0.47954 2.85905,-0.64403 8.62962,-0.64403 l 7.74896,0 0,-4.75127 0,-4.75137 -8.46622,0 c -9.41375,0 -11.91985,0.46378 -15.14976,2.80343 -2.76575,2.00355 -4.15131,5.1241 -4.13476,9.31252 0.0274,6.90197 3.00071,9.65675 12.81803,11.8751 5.64271,1.27513 5.9051,1.39301 5.9051,2.65619 0,1.51157 -1.92238,1.8607 -10.24634,1.8607 l -7.80878,0 0,4.75138 0,4.75127 8.52907,0 c 4.69097,0 9.58753,-0.22695 10.88136,-0.50441 z m 41.88189,-4.722 0,-5.22651 -8.31485,0 -8.31486,0 0,-1.90045 0,-1.90065 7.6021,0 7.6022,0 0,-4.9888 0,-4.98889 -7.6022,0 -7.6021,0 0,-1.66293 0,-1.66303 8.31486,0 8.31485,0 0,-5.22651 0,-5.22641 -14.25402,0 -14.25402,0 0,19.00539 0,19.0052 14.25402,0 14.25402,0 0,-5.22641 z m -179.12552,-24.23181 0,-8.55237 -6.21634,0 c -3.41897,0 -6.14505,0.18572 -6.05794,0.41296 0.3867,1.00843 11.5707,16.69188 11.90308,16.69188 0.20417,0 0.3712,-3.84858 0.3712,-8.55247 z"
             style="fill:#cccccc;fill-opacity:1" />
          <g
             id="g3262"
             transform="matrix(0.85800035,0,0,0.85800035,131.10829,-10.342717)">
            <path
               inkscape:connector-curvature="0"
               d="m 959.49994,976.46146 c 6.5681,17.63999 -7.94425,18.26551 -15.94592,29.48224 -5.57243,7.8114 -6.51067,25.0016 13.56891,29.5054 -8.44468,-4.4413 -10.25872,-17.3272 -1.12599,-25.3966 -2.3579,7.8257 1.97482,12.8416 7.42209,11.0001 5.33879,-1.8048 8.80751,2.0293 8.71668,6.3897 -0.0626,3.0025 -1.00087,5.317 -4.31622,7.0059 0,0 18.32812,-3.5029 18.32812,-21.3931 0,-10.8843 -9.69578,-12.3934 -4.8166,-21.51833 -5.81747,0.5004 -7.8261,4.30232 -7.25615,10.57153 0.37527,4.1285 -3.94085,6.9642 -7.13107,5.068 -2.59128,-1.5401 -2.50218,-4.5754 -0.2502,-6.8195 4.79455,-4.7779 6.69318,-15.70087 -7.19365,-23.89534 z"
               id="path4"
               style="fill:#cccccc" />
            <g
               style="fill:#cccccc;fill-opacity:1"
               inkscape:label="Layer 1"
               id="layer1-3"
               transform="matrix(0.27556312,0,0,0.27556312,737.74222,885.20229)">
              <g
                 transform="matrix(1.25,0,0,-1.25,85.589293,539.24835)"
                 inkscape:label="ink_ext_XXXXXX"
                 id="g3012"
                 style="fill:#cccccc;fill-opacity:1">
                <g
                   transform="scale(0.1,0.1)"
                   id="g3014"
                   style="fill:#cccccc;fill-opacity:1">
                  <g
                     id="g3016"
                     style="fill:#cccccc;fill-opacity:1">
                    <g
                       clip-path="url(#clipPath3020)"
                       id="g3018"
                       style="fill:#cccccc;fill-opacity:1">
                      <path
                         id="path3024"
                         style="fill:#cccccc;fill-opacity:1;fill-rule:nonzero;stroke:none"
                         d="m 924.973,742.875 -403.567,0 c -10.41,0 -18.855,-8.449 -18.855,-18.867 l 0,-197.305 c 0,-10.41 8.445,-18.887 18.855,-18.887 l 157.434,0 0,-245.136 c 0,0 -35.356,-12.051 -133.078,-12.051 -115.301,0 -276.367,42.133 -276.367,396.312 0,354.259 167.714,400.869 325.175,400.869 136.297,0 195.02,-24 232.383,-35.56 11.738,-3.6 22.598,8.09 22.598,18.51 l 45.019,190.64 c 0,4.87 -1.648,10.74 -7.207,14.73 -15.175,10.82 -107.746,62.62 -341.601,62.62 C 276.348,1298.75 0,1184.13 0,633.129 0,82.1094 316.395,0 583.02,0 c 220.757,0 354.683,94.3398 354.683,94.3398 5.52,3.0508 6.113,10.7622 6.113,14.3012 l 0,615.367 c 0,10.418 -8.433,18.867 -18.843,18.867"
                         inkscape:connector-curvature="0" />
                      <path
                         id="path3026"
                         style="fill:#cccccc;fill-opacity:1;fill-rule:nonzero;stroke:none"
                         d="m 3004.75,1232.73 c 0,10.5 -8.32,18.97 -18.73,18.97 l -227.23,0 c -10.38,0 -18.82,-8.47 -18.82,-18.97 0,-0.05 0.06,-439.125 0.06,-439.125 l -354.19,0 0,439.125 c 0,10.5 -8.36,18.97 -18.75,18.97 l -227.22,0 c -10.34,0 -18.77,-8.47 -18.77,-18.97 l 0,-1189.0308 c 0,-10.4883 8.43,-19.0273 18.77,-19.0273 l 227.22,0 c 10.39,0 18.75,8.539 18.75,19.0273 l 0,508.5898 354.19,0 c 0,0 -0.62,-508.5507 -0.62,-508.5898 0,-10.4883 8.43,-19.0273 18.82,-19.0273 l 227.77,0 c 10.41,0 18.73,8.539 18.75,19.0273 l 0,1189.0308"
                         inkscape:connector-curvature="0" />
                      <path
                         id="path3028"
                         style="fill:#cccccc;fill-opacity:1;fill-rule:nonzero;stroke:none"
                         d="m 1353.76,1076.7 c 0,81.82 -65.6,147.94 -146.53,147.94 -80.85,0 -146.5,-66.12 -146.5,-147.94 0,-81.735 65.65,-148.032 146.5,-148.032 80.93,0 146.53,66.297 146.53,148.032"
                         inkscape:connector-curvature="0" />
                      <path
                         id="path3030"
                         style="fill:#cccccc;fill-opacity:1;fill-rule:nonzero;stroke:none"
                         d="m 1337.51,294.52 c 0,30.464 0,548.859 0,548.859 0,10.422 -8.41,18.941 -18.8,18.941 l -226.51,0 c -10.39,0 -19.69,-10.718 -19.69,-21.136 0,0 0,-660.454 0,-786.352 0,-23.1132 14.4,-29.9804 33.04,-29.9804 0,0 96.68,0 204.08,0 22.39,0 27.88,10.9882 27.88,30.3476 0,42.1524 0,207.2698 0,239.3208"
                         inkscape:connector-curvature="0" />
                      <path
                         id="path3032"
                         style="fill:#cccccc;fill-opacity:1;fill-rule:nonzero;stroke:none"
                         d="m 3868.32,860.531 -225.49,0 c -10.34,0 -18.76,-8.523 -18.76,-19.011 l 0,-583.02 c 0,0 -57.28,-41.91 -138.59,-41.91 -81.3,0 -102.88,36.89 -102.88,116.5 0,79.707 0,508.43 0,508.43 0,10.488 -8.4,19.011 -18.75,19.011 l -228.85,0 c -10.33,0 -18.79,-8.523 -18.79,-19.011 0,0 0,-310.481 0,-546.93 0,-236.4611 131.79,-294.30875 313.09,-294.30875 148.73,0 268.65,82.16795 268.65,82.16795 0,0 5.71,-43.3008 8.29,-48.4375 2.59,-5.1211 9.32,-10.2929 16.59,-10.2929 l 145.59,0.6406 c 10.33,0 18.79,8.539 18.79,18.9804 l -0.07,798.1802 c 0,10.488 -8.43,19.011 -18.82,19.011"
                         inkscape:connector-curvature="0" />
                      <path
                         id="path3034"
                         style="fill:#cccccc;fill-opacity:1;fill-rule:nonzero;stroke:none"
                         d="m 4395.67,217.309 c -78.21,2.382 -131.26,37.871 -131.26,37.871 l 0,376.543 c 0,0 52.34,32.078 116.55,37.812 81.2,7.274 159.44,-17.254 159.44,-210.957 0,-204.258 -35.31,-244.566 -144.73,-241.269 z m 88.94,669.933 c -128.07,0 -215.18,-57.14 -215.18,-57.14 l 0,402.628 c 0,10.5 -8.39,18.97 -18.75,18.97 l -227.87,0 c -10.36,0 -18.78,-8.47 -18.78,-18.97 l 0,-1189.0308 c 0,-10.4883 8.42,-19.0273 18.81,-19.0273 0.02,0 158.05,0 158.1,0 7.12,0 12.51,3.6679 16.49,10.0976 3.93,6.3907 9.6,54.8203 9.6,54.8203 0,0 93.18,-88.30074 269.57,-88.30074 207.08,0 325.84,105.04294 325.84,471.54694 0,366.512 -189.67,414.406 -317.83,414.406"
                         inkscape:connector-curvature="0" />
                      <path
                         id="path3036"
                         style="fill:#cccccc;fill-opacity:1;fill-rule:nonzero;stroke:none"
                         d="m 1990.58,862.426 -170.45,0 c 0,0 -0.26,225.134 -0.26,225.184 0,8.52 -4.39,12.78 -14.24,12.78 l -232.28,0 c -9.03,0 -13.88,-3.97 -13.88,-12.65 l 0,-232.697 c 0,0 -116.4,-28.102 -124.27,-30.371 -7.84,-2.274 -13.61,-9.5 -13.61,-18.125 l 0,-146.227 c 0,-10.515 8.4,-18.996 18.79,-18.996 l 119.09,0 c 0,0 0,-152.941 0,-351.785 0,-261.289 183.28,-286.96088 306.96,-286.96088 56.51,0 124.11,18.15238 135.27,22.27348 6.75,2.4804 10.67,9.4687 10.67,17.0468 l 0.19,160.8636 c 0,10.488 -8.86,18.976 -18.84,18.976 -9.93,0 -35.34,-4.039 -61.5,-4.039 -83.72,0 -112.09,38.93 -112.09,89.317 0,50.351 -0.01,334.308 -0.01,334.308 l 170.46,0 c 10.39,0 18.8,8.481 18.8,18.996 l 0,183.16 c 0,10.497 -8.41,18.946 -18.8,18.946"
                         inkscape:connector-curvature="0" />
                    </g>
                  </g>
                </g>
              </g>
            </g>
          </g>
          <g
             id="g3277"
             transform="matrix(1.1131221,0,0,1.1131221,8.444904,-85.52926)">
            <g
               transform="matrix(0.6394149,0,0,0.6394149,874.63327,800.56265)"
               id="g3139"
               style="fill:#cccccc;fill-opacity:1">
              <g
                 id="g3141"
                 style="fill:#cccccc;fill-opacity:1">
                <g
                   id="g3143"
                   style="fill:#cccccc;fill-opacity:1">
                  <path
                     id="path3145"
                     d="m 39.217,146.917 c 4.19,0 9.227,2.047 9.227,8.832 0,6.02 -3.771,9.4 -9.227,9.4 h -9.886 v -18.232 h 9.886 z m -6.229,14.574 h 6.229 c 3.208,0 5.562,-1.829 5.562,-5.524 0,-4.288 -2.706,-5.376 -5.562,-5.376 h -6.229 v 10.9 z"
                     inkscape:connector-curvature="0"
                     style="fill:#cccccc;fill-opacity:1" />
                </g>
                <g
                   id="g3147"
                   style="fill:#cccccc;fill-opacity:1">
                  <path
                     id="path3149"
                     d="m 30.748,207.386 c 3.163,2.039 6.183,2.781 9.392,2.781 1.829,0 4.916,-0.451 4.916,-2.496 0,-1.484 -1.61,-1.867 -2.735,-1.896 l -5.449,-0.173 c -4.468,-0.104 -6.664,-2.713 -6.664,-5.53 0,-2.714 2.009,-5.593 8.552,-5.593 4.79,0 7.705,1.829 8.8,2.392 l -1.649,3.237 c -1.447,-0.741 -4.085,-1.972 -7.706,-1.972 -1.933,0 -4.332,0.421 -4.332,2.039 0,1.409 2.001,1.762 3.246,1.762 l 4.744,0.18 c 4.191,0.106 6.858,1.897 6.858,5.727 0,3.276 -2.563,5.989 -8.582,5.989 -4.925,0 -8.553,-1.229 -11.086,-3.178 l 1.695,-3.269 z"
                     inkscape:connector-curvature="0"
                     style="fill:#cccccc;fill-opacity:1" />
                </g>
                <g
                   id="g3151"
                   style="fill:#cccccc;fill-opacity:1">
                  <path
                     id="path3153"
                     d="m 47.439,243.153 v 3.651 h -6.715 v 14.563 h -3.666 v -14.563 h -6.724 v -3.651 h 17.105 z"
                     inkscape:connector-curvature="0"
                     style="fill:#cccccc;fill-opacity:1" />
                </g>
              </g>
              <g
                 id="g3155"
                 style="fill:#cccccc;fill-opacity:1">
                <g
                   id="g3157"
                   style="fill:#cccccc;fill-opacity:1">
                  <path
                     id="path3159"
                     d="m 78.928,146.917 h 4.857 l 8.942,18.232 h -4.16 l -1.828,-3.838 H 76.08 l -1.837,3.838 h -4.145 l 8.83,-18.232 z m -1.049,10.736 h 7.031 l -3.516,-7.175 -3.515,7.175 z"
                     inkscape:connector-curvature="0"
                     style="fill:#cccccc;fill-opacity:1" />
                </g>
                <g
                   id="g3161"
                   style="fill:#cccccc;fill-opacity:1">
                  <path
                     id="path3163"
                     d="m 76.469,195.041 v 7.923 l 7.848,-7.923 h 4.677 l -6.401,6.476 7.419,11.754 h -4.399 l -5.705,-9.01 -3.44,3.372 v 5.638 h -3.657 v -18.229 h 3.658 z"
                     inkscape:connector-curvature="0"
                     style="fill:#cccccc;fill-opacity:1" />
                </g>
                <g
                   id="g3165"
                   style="fill:#cccccc;fill-opacity:1">
                  <path
                     id="path3167"
                     d="m 83.238,243.153 v 18.215 h -3.65 v -18.215 h 3.65 z"
                     inkscape:connector-curvature="0"
                     style="fill:#cccccc;fill-opacity:1" />
                </g>
              </g>
              <g
                 id="g3169"
                 style="fill:#cccccc;fill-opacity:1">
                <g
                   id="g3171"
                   style="fill:#cccccc;fill-opacity:1">
                  <path
                     id="path3173"
                     d="m 130.632,146.917 v 3.673 h -6.723 v 14.559 h -3.657 V 150.59 h -6.725 v -3.673 h 17.105 z"
                     inkscape:connector-curvature="0"
                     style="fill:#cccccc;fill-opacity:1" />
                </g>
                <g
                   id="g3175"
                   style="fill:#cccccc;fill-opacity:1">
                  <path
                     id="path3177"
                     d="m 129.958,195.041 v 3.657 h -12.519 v 3.313 h 6.603 v 3.65 h -6.603 v 3.95 h 12.946 v 3.658 H 113.774 V 195.04 h 16.184 z"
                     inkscape:connector-curvature="0"
                     style="fill:#cccccc;fill-opacity:1" />
                </g>
                <g
                   id="g3179"
                   style="fill:#cccccc;fill-opacity:1">
                  <path
                     id="path3181"
                     d="m 129.875,249.232 c -1.191,-0.98 -3.695,-2.976 -7.247,-2.976 -4.506,0 -7.151,3.149 -7.151,6.102 0,2.722 2.331,5.914 7.569,5.914 3.238,0 6.125,-1.401 7.639,-2.563 l 1.649,3.374 c -2.562,1.903 -6.507,2.854 -9.317,2.854 -6.123,0 -11.19,-3.342 -11.19,-9.683 0,-6.424 5.906,-9.67 10.973,-9.67 4.716,0 7.285,2.075 9.22,3.455 l -2.145,3.193 z"
                     inkscape:connector-curvature="0"
                     style="fill:#cccccc;fill-opacity:1" />
                </g>
              </g>
              <g
                 id="g3183"
                 style="fill:#cccccc;fill-opacity:1">
                <g
                   id="g3185"
                   style="fill:#cccccc;fill-opacity:1">
                  <path
                     id="path3187"
                     d="m 159.152,146.917 h 4.857 l 8.941,18.232 h -4.159 l -1.829,-3.838 h -10.659 l -1.829,3.838 h -4.151 l 8.829,-18.232 z m -1.05,10.736 h 7.032 l -3.516,-7.175 -3.516,7.175 z"
                     inkscape:connector-curvature="0"
                     style="fill:#cccccc;fill-opacity:1" />
                </g>
                <g
                   id="g3189"
                   style="fill:#cccccc;fill-opacity:1">
                  <path
                     id="path3191"
                     d="m 163.814,195.041 c 3.546,0 6.589,1.552 6.589,5.772 0,4.077 -2.826,5.875 -6.589,5.875 h -7.285 v 6.582 h -3.657 v -18.229 h 10.942 z m -7.285,7.982 h 7.285 c 1.409,0 2.915,-0.172 2.915,-2.21 0,-1.935 -1.611,-2.115 -2.915,-2.115 h -7.285 v 4.325 z"
                     inkscape:connector-curvature="0"
                     style="fill:#cccccc;fill-opacity:1" />
                </g>
                <g
                   id="g3193"
                   style="fill:#cccccc;fill-opacity:1">
                  <path
                     id="path3195"
                     d="m 152.519,250.373 h 18.222 v 3.649 h -18.222 v -3.649 z"
                     inkscape:connector-curvature="0"
                     style="fill:#cccccc;fill-opacity:1" />
                </g>
              </g>
            </g>
            <g
               transform="matrix(0.6394149,0,0,0.6394149,874.63327,800.56265)"
               id="g3197"
               style="fill:#cccccc;fill-opacity:1">
              <path
                 id="path3199"
                 d="M 92.27,56.82 69.604,31.646 C 69.132,31.122 68.458,30.822 67.753,30.822 H 30.77 c -1.199,-0.341 -2.48,0.215 -2.976,1.39 -0.143,0.341 -0.19,0.694 -0.179,1.041 0,0.022 -0.015,0.041 -0.015,0.063 v 82.03 c 0,0.004 0,0.008 0,0.012 v 0.111 c 0,1.377 1.116,2.494 2.496,2.494 h 39.059 c 0.75,0 1.454,-0.335 1.926,-0.913 L 92.728,90.643 c 0.367,-0.446 0.57,-1.004 0.57,-1.582 v -0.163 c 0,-0.004 0,-0.008 0,-0.011 v -29.97 c 0,-0.024 -0.015,-0.045 -0.015,-0.069 0.021,-0.8 -0.365,-1.54 -1.013,-2.028 z M 32.591,36.94 88.305,60.435 V 87.284 L 32.591,111.521 V 36.94 z M 81.259,52.047 42.751,35.811 H 66.643 L 81.259,52.047 z M 67.973,112.975 H 41.758 L 82.503,95.25 67.973,112.975 z"
                 inkscape:connector-curvature="0"
                 style="fill:#cccccc;fill-opacity:1" />
              <path
                 id="path3201"
                 d="m 174.334,102.713 c -0.003,-0.073 0.026,-0.144 0.02,-0.217 V 76.223 c 0,-0.947 -0.54,-1.812 -1.387,-2.234 L 159.558,67.326 173.93,47.407 c 0.689,-0.958 0.614,-2.266 -0.176,-3.139 L 162.3,31.679 c -0.475,-0.52 -1.146,-0.816 -1.848,-0.816 h -37.968 c -0.704,0 -1.38,0.298 -1.852,0.821 l -11.445,12.653 c -0.085,0.095 -0.113,0.224 -0.18,0.331 -0.105,0.162 -0.211,0.315 -0.276,0.499 -0.067,0.175 -0.088,0.352 -0.109,0.539 -0.013,0.104 -0.064,0.197 -0.064,0.304 v 26.577 c 0,0.946 0.54,1.812 1.387,2.233 l 13.365,6.637 -14.313,19.974 c -0.686,0.956 -0.612,2.261 0.184,3.131 l 11.446,12.585 c 0.471,0.52 1.139,0.815 1.844,0.815 h 37.968 c 0.705,0 1.375,-0.298 1.848,-0.82 l 11.453,-12.661 c 0.12,-0.129 0.165,-0.294 0.251,-0.44 0.034,-0.053 0.094,-0.075 0.121,-0.131 0.025,-0.051 0.019,-0.105 0.04,-0.156 0.072,-0.172 0.113,-0.345 0.143,-0.529 0.028,-0.172 0.044,-0.34 0.039,-0.512 z m -50.74,-66.861 h 35.754 l 9.351,10.276 -13.671,18.949 -39.93,-19.835 8.496,-9.39 z M 113.55,50.04 169.362,77.768 v 21 L 113.55,71.041 V 50.04 z m 45.782,62.935 h -35.76 l -9.349,-10.279 13.606,-18.989 40.002,19.87 -8.499,9.398 z"
                 inkscape:connector-curvature="0"
                 style="fill:#cccccc;fill-opacity:1" />
            </g>
          </g>
          <g
             id="g3054"
             transform="matrix(0.38457203,0,0,0.38457203,339.8333,750.67854)"
             style="fill:#cccccc;fill-opacity:1">
            <path
               style="fill:#cccccc;fill-opacity:1"
               d="m 545.24173,606.79021 c -0.92155,-1.11041 -0.17435,-2.08734 3.75641,-4.91131 l 4.90679,-3.52518 0.74563,-63.62787 c 0.4101,-34.99533 0.47489,-65.29627 0.14398,-67.33542 -0.65508,-4.03679 -2.64211,-6.03012 -6.87489,-6.89671 -1.50017,-0.30713 -3.23658,-1.17173 -3.85869,-1.92133 -0.89122,-1.07385 -0.56403,-1.57852 1.54267,-2.37949 1.47058,-0.55911 4.12495,-1.01657 5.89859,-1.01657 5.47723,0 14.72632,-2.84139 24.4877,-7.52282 5.13848,-2.46435 9.80581,-4.19442 10.37183,-3.84459 0.68549,0.42365 0.78727,5.97294 0.3048,16.61922 -0.45379,10.0136 -0.36892,15.84593 0.22724,15.61569 0.52336,-0.20213 4.31298,-4.4175 8.42137,-9.3675 10.12584,-12.20014 16.74588,-17.98907 22.11892,-19.34201 12.02357,-3.02757 20.5021,6.45394 22.66642,25.34777 0.59115,5.1605 1.03381,33.792 1.03852,67.17166 l 0.008,58.17742 2.58246,2.03136 c 1.42036,1.11726 3.44536,2.30524 4.5,2.63997 2.31537,0.73487 2.54202,4.02022 0.33575,4.86684 -0.86978,0.33385 -11.61468,0.60699 -23.87735,0.60699 -17.48285,0 -22.53731,-0.29103 -23.41468,-1.34821 -1.30406,-1.57129 0.40731,-3.41439 5.62402,-6.05688 l 3.25,-1.64627 0,-57.50644 c 0,-62.92315 -0.0383,-63.36565 -5.66238,-65.50394 -3.74138,-1.42247 -9.54482,0.86165 -15.08762,5.9382 l -4.25,3.89249 0,55.66098 0,55.66098 2.37839,2.20454 c 1.30811,1.2125 3.58128,3.03053 5.05147,4.04006 2.13831,1.4683 2.43824,2.1185 1.49917,3.25 -1.71076,2.06134 -47.12541,2.08772 -48.83452,0.0284 z m -343.88955,-1.44682 c -10.50854,-3.75134 -16.98027,-11.89035 -19.71377,-24.79255 -1.70276,-8.03704 -1.91172,-19.88411 -0.48354,-27.41486 3.20817,-16.91663 16.60174,-30.47705 39.95264,-40.45036 4.65316,-1.9874 9.07252,-4.12155 9.8208,-4.74257 1.05993,-0.87966 1.28964,-4.27559 1.03971,-15.37042 -0.30302,-13.45197 -0.45437,-14.38329 -2.73073,-16.80348 -2.82542,-3.00394 -8.25238,-4.29553 -11.61371,-2.764 -4.32416,1.97021 -5.80063,5.66171 -6.40958,16.02528 l -0.56678,9.6459 -12.5,0 -12.5,0 0,-12 c 0,-9.3824 0.41543,-13.09067 1.90446,-17 3.96783,-10.41719 10.87423,-17.43891 20.83456,-21.18243 5.42995,-2.04081 21.70587,-2.2992 27.26098,-0.43278 10.31333,3.4651 17.64566,10.81875 21.83868,21.90217 2.08935,5.52279 2.17797,7.46884 2.66132,58.43933 l 0.5,52.72629 3.25,2.96734 c 3.19865,2.92046 3.25,3.10726 3.25,11.82371 0,5.55495 -0.44733,9.3037 -1.2,10.05637 -1.66798,1.66797 -8.70101,1.49903 -13.8958,-0.3338 -5.2573,-1.85488 -8.43993,-4.68106 -11.08826,-9.84638 l -1.98941,-3.88018 -5.16327,5.08461 c -9.21741,9.077 -21.53371,12.24268 -32.4583,8.34281 z m 22.1785,-23.55392 c 1.82558,-0.76277 4.39862,-2.90027 5.71788,-4.75 2.31256,-3.24243 2.41033,-4.09446 2.7238,-23.738 0.19241,-12.05722 -0.0641,-20.76413 -0.62844,-21.32844 -1.22396,-1.22396 -9.86471,3.0949 -14.7187,7.35676 -6.70807,5.88976 -7.978,9.68564 -7.978,23.84654 0,13.39943 0.77365,15.91586 5.74138,18.67477 2.9563,1.64183 5.09972,1.62738 9.14208,-0.0616 z m 92.11654,24.04089 c -18.59065,-4.84095 -30.88209,-21.08961 -36.80124,-48.64938 -2.76879,-12.89159 -2.95321,-41.30275 -0.35296,-54.37705 5.06357,-25.46017 17.8149,-45.12832 34.24135,-52.81518 5.90643,-2.76395 7.92565,-3.19858 14.87355,-3.20147 10.23266,-0.004 15.72216,2.46776 24.07217,10.84007 7.49983,7.51986 12.80209,17.47318 15.97831,29.99422 2.52827,9.96671 5.05394,29.6397 4.11827,32.07802 -0.46461,1.21075 -5.50563,1.49057 -30.84242,1.71202 l -30.28703,0.26472 0.17466,9 c 0.52982,27.30041 15.38717,51.62593 31.44136,51.47804 6.91556,-0.0637 14.58598,-6.34113 21.11399,-17.27955 2.76636,-4.63533 4.51686,-6.62587 5.49635,-6.25 0.79047,0.30333 1.62541,0.55151 1.85543,0.55151 1.22071,0 0.0634,4.99132 -2.69193,11.60994 -6.86223,16.48381 -17.94873,29.39765 -28.68699,33.41535 -7.08595,2.65119 -17.12674,3.34114 -23.70287,1.62874 z m 25.49245,-108.40403 c -0.0122,-20.60646 -2.90304,-32.47265 -9.20225,-37.77308 -7.76821,-6.53652 -16.02533,1.06267 -20.31827,18.69932 -1.6665,6.84648 -3.14302,27.63256 -2.14719,30.22765 0.52445,1.36668 2.84502,1.59611 16.14388,1.59611 l 15.53138,0 -0.008,-12.75 z m 106.50755,108.33526 c -17.4151,-3.41375 -30.57634,-10.59941 -42.64352,-23.28213 -14.63684,-15.38346 -21.84247,-33.79239 -21.84247,-55.80313 0,-34.70417 20.1204,-63.92985 52.02979,-75.57533 43.47335,-15.86581 90.57341,9.66029 102.54608,55.57533 2.77276,10.63346 2.56435,30.47373 -0.43067,41 -9.84594,34.60446 -38.02756,57.4951 -72.65921,59.01774 -6.21694,0.27334 -12.64814,-0.0794 -17,-0.93248 z m 21.61351,-23.58405 c 14.83499,-2.75078 28.63403,-13.60057 35.80849,-28.15519 11.92755,-24.19711 8.10546,-50.97831 -9.83805,-68.93469 -15.33717,-15.34818 -36.01177,-18.81636 -55.13568,-9.24906 -32.86455,16.44146 -39.12774,65.2668 -11.8779,92.59549 11.8196,11.85381 25.86671,16.55754 41.04314,13.74345 z"
               id="path3058"
               inkscape:connector-curvature="0" />
          </g>
          <g
             id="g3311"
             transform="matrix(1.2462931,0,0,1.2462931,-95.20216,-118.87856)"
             style="fill:#cccccc;fill-opacity:1">
            <path
               inkscape:connector-curvature="0"
               id="path3289"
               d="m 814.46441,867.15093 c -1.86224,-0.31928 -3.45335,-1.92758 -3.79393,-3.83487 -0.38547,-2.15874 0.68773,-4.25806 2.66472,-5.21251 1.15122,-0.5558 2.90582,-0.53879 4.0835,0.0397 3.55202,1.74436 3.62478,6.77284 0.123,8.50012 -1.09511,0.54013 -2.00894,0.69094 -3.07729,0.50777 z m 19.94588,0 c -2.23013,-0.38261 -3.87215,-2.37845 -3.87352,-4.70818 -0.001,-1.92806 1.00846,-3.49987 2.80715,-4.37038 1.0824,-0.52387 2.87177,-0.49258 4.01798,0.0703 1.00084,0.49151 1.8626,1.37619 2.33086,2.39284 0.45952,0.99777 0.44637,2.8808 -0.0269,3.85876 -0.54183,1.11948 -1.19247,1.7874 -2.21896,2.27777 -1.06937,0.51083 -1.99731,0.65718 -3.03657,0.47889 z"
               style="fill:#cccccc;fill-opacity:1"
               sodipodi:nodetypes="ssssssscssssss" />
            <path
               inkscape:connector-curvature="0"
               id="path3287"
               d="m 819.84094,886.09796 c -12.29847,-1.49092 -21.99792,-7.77177 -24.52099,-15.87849 -0.50011,-1.60691 -0.65915,-2.86245 -0.60477,-4.77447 l 0.051,-1.79432 -0.46022,-0.35904 c -2.39044,-1.86511 -3.51104,-5.12664 -2.75658,-8.02322 1.00801,-3.86997 4.82923,-6.41169 8.68552,-5.77716 1.18273,0.19461 2.43495,0.69121 3.37096,1.33674 l 0.55559,0.38314 1.66885,-0.91881 c 4.74418,-2.61203 10.07471,-4.05385 16.8101,-4.54691 0.73394,-0.0537 1.39991,-0.17802 1.47994,-0.27629 0.08,-0.0983 1.29961,-3.46654 2.71018,-7.48502 1.41056,-4.01853 2.61714,-7.39131 2.68128,-7.49511 0.0879,-0.14217 1.68159,0.18709 6.46394,1.33551 3.49101,0.83825 6.43653,1.49296 6.54559,1.45481 0.10906,-0.0381 0.33233,-0.332 0.49614,-0.6531 1.06593,-2.0894 4.02206,-3.50997 6.42371,-3.08695 3.37825,0.59509 5.56045,3.32717 5.34511,6.69212 -0.1713,2.67701 -1.88886,4.85239 -4.44401,5.62844 -3.64241,1.10639 -7.38358,-1.20798 -8.08221,-4.99976 -0.0926,-0.50235 -0.21981,-0.95955 -0.28278,-1.01607 -0.063,-0.0565 -2.49415,-0.66775 -5.40263,-1.35836 -4.67007,-1.10886 -5.30842,-1.2279 -5.46158,-1.01843 -0.20499,0.28032 -4.20767,11.66397 -4.20767,11.96661 0,0.28268 0.3471,0.39361 1.23197,0.39361 1.08491,0 4.05736,0.41196 6.13028,0.84964 3.47912,0.73457 7.37696,2.17923 10.12916,3.75421 0.73569,0.42098 1.38227,0.76548 1.43684,0.76548 0.0546,0 0.46058,-0.23969 0.90225,-0.53256 1.36557,-0.90556 2.41427,-1.20176 4.25475,-1.20176 2.45491,0 4.06034,0.69824 5.71025,2.48349 2.90071,3.13862 2.72922,7.79152 -0.39917,10.82989 l -1.11807,1.08589 0.0658,1.68312 c 0.26161,6.68691 -4.38641,13.00178 -12.46625,16.93696 -3.88285,1.89109 -8.0051,3.05952 -12.75329,3.61494 -2.39868,0.28058 -7.87913,0.28128 -10.18906,0 z m 9.99799,-2.45133 c 5.70661,-0.66754 11.15751,-2.54811 15.2455,-5.25974 1.90033,-1.26047 4.50805,-3.80863 5.56532,-5.43819 1.57585,-2.42885 2.2884,-4.925 2.13498,-7.47922 -0.11512,-1.91637 -0.40526,-2.97547 -1.32545,-4.83806 -3.05613,-6.18612 -10.9488,-10.74285 -21.03347,-12.14334 -2.63247,-0.3656 -8.23945,-0.36565 -10.88401,-1.6e-4 -6.8272,0.94361 -12.75453,3.36221 -16.87501,6.88569 -3.78497,3.23663 -5.72074,7.23385 -5.47609,11.30772 0.11269,1.87654 0.40375,2.9716 1.24616,4.68869 3.08813,6.29464 11.42372,11.04812 21.51382,12.26856 2.32169,0.28079 7.52016,0.28503 9.88825,0.008 z m -8.49784,-4.90515 c -3.99593,-0.70392 -7.78225,-2.79965 -7.78225,-4.30743 0,-0.39077 0.84822,-1.14637 1.28684,-1.14637 0.21474,0 0.62601,0.20721 0.91522,0.46112 1.45374,1.27641 3.9343,2.27885 6.47654,2.61723 0.82441,0.10975 2.25527,0.15006 3.59413,0.10122 3.43826,-0.12537 5.83409,-0.84733 8.20947,-2.47382 0.56691,-0.38814 1.19846,-0.70575 1.40342,-0.70575 0.53876,0 1.12576,0.6487 1.12576,1.24405 0,1.23444 -3.33669,3.16986 -6.88705,3.99481 -1.7368,0.40353 -6.5654,0.52794 -8.34208,0.21494 z m 33.67756,-18.14843 c 0.72735,-0.76039 1.23276,-2.1084 1.24636,-3.32427 0.0202,-1.80575 -0.7117,-3.29357 -2.16545,-4.402 -0.67242,-0.5127 -2.27248,-1.05642 -3.10887,-1.05642 -0.75239,0 -2.60127,0.57109 -2.70244,0.83477 -0.0455,0.11866 0.65231,0.93202 1.67064,1.94728 1.85271,1.84713 3.01763,3.42559 3.90131,5.28641 0.29676,0.62487 0.588,1.13612 0.64723,1.13612 0.0592,0 0.28927,-0.18988 0.51122,-0.42189 z m -58.6917,-1.14772 c 0.98696,-1.91094 2.19686,-3.47593 4.0482,-5.23623 l 1.54586,-1.46984 -0.50533,-0.30731 c -1.25829,-0.76521 -3.17467,-0.76183 -4.71581,0.008 -2.83065,1.4145 -3.77014,5.02606 -2.00189,7.69561 0.26436,0.39914 0.57446,0.72572 0.6891,0.72572 0.11464,0 0.53758,-0.63732 0.93987,-1.41622 z m 53.45608,-19.9887 c 1.97359,-0.67247 3.02585,-2.7953 2.40792,-4.85775 -0.22347,-0.74584 -1.20594,-1.88449 -1.94764,-2.25716 -1.24696,-0.62654 -2.78102,-0.52226 -3.93161,0.26716 -0.74935,0.51415 -1.53893,1.78509 -1.65731,2.66763 -0.38068,2.83818 2.40458,5.10833 5.12864,4.18012 z"
               style="fill:#cccccc;fill-opacity:1" />
          </g>
        </g>
      </g>
    </g>
  </g>
</svg>
