<?xml version="1.0" encoding="UTF-8" standalone="no"?>
<svg xmlns:rdf="http://www.w3.org/1999/02/22-rdf-syntax-ns#" xmlns="http://www.w3.org/2000/svg" version="1.1" xmlns:cc="http://creativecommons.org/ns#" xmlns:dc="http://purl.org/dc/elements/1.1/" viewBox="0 0 1000 250">
<defs>
<clipPath id="a" clipPathUnits="userSpaceOnUse">
<path d="m0 0h4802v1298.8h-4802v-1298.8z"/>
</clipPath>
</defs>
<metadata>
<rdf:RDF>
<cc:Work rdf:about="">
<dc:format>image/svg+xml</dc:format>
<dc:type rdf:resource="http://purl.org/dc/dcmitype/StillImage"/>
<dc:title/>
</cc:Work>
</rdf:RDF>
</metadata>
<g transform="translate(0 -802.36)">
<g transform="matrix(1.0232 0 0 1.0232 -11.604 -18.621)">
<g transform="matrix(1.093 0 0 1.093 120.33 171.03)">
<path fill="#ccc" d="m42.481 651.58v-30.175h-8.3564v-8.249l8.3564-1.1218v-10.291l18.029-2.5325v12.83h11.957v9.4044h-11.957v28.616c0 5.3739 1.498 8.128 6.7846 8.128 1.8809 0 4.4469-0.20152 5.7568-0.47021v6.9794c-2.8885 1.7062-9.0685 3.1572-14.778 3.1572-10.748 0-15.786-4.7358-15.786-16.276zm120.21-34.75c4.5275 0 6.9727 0.80609 6.9727 16.807l-15.114 0.8867c0.20153-14.51 2.3914-17.694 8.1415-17.694zm-7.9937 24.203h32.499c0-22.879-7.8594-30.175-24.203-30.175-16.236 0-26.89 10.452-26.89 28.401 0 18.54 9.6596 28.797 28.388 28.797 10.063 0 18.191-4.5006 20.716-7.9265v-5.3067c-3.7819 1.142-7.6713 1.8809-14.644 1.8809-9.841 0-14.913-5.1052-15.866-15.719zm-80.085 20.716 5.777-2.6601v-59.315l-6.0792-2.8213v-4.9507l22.476-3.6274h1.5248v29.677h0.60457c4.9037-4.4335 11.487-7.201 18.809-7.201 9.2028 0 13.771 4.5813 13.771 14.577v33.654l5.8441 2.6668v5.0179h-29.758v-5.0179l5.8441-2.6668v-29.577c0-5.5351-2.4183-7.6041-7.322-7.6041-2.687 0-5.2396 0.49037-7.4563 1.3838v35.804l5.8441 2.6735v5.0179h-29.833v-5.038z"/>
<path fill="#999" d="m469.04 614.41v4.9574l6.0725 2.8213v36.946l-5.7904 2.687v5.038h29.711v-4.9709l-5.7904-2.687v-48.365h-1.5248l-22.678 3.6207zm61.599 41.816v-14.731l-4.2185 0.40304c-4.1984 0.40305-7.6377 3.1908-7.6377 8.4102 0 6.0121 3.305 7.9937 6.7846 7.9937 2.0152 0 4.064-0.99417 5.0649-2.0824zm-12.79-38.047-3.8289 11.124h-9.3775v-14.308c5.0649-1.5719 11.238-4.1379 20.797-4.1379 14.543 0 23.282 4.2991 23.282 16.525v31.706l5.777 2.687v4.111c-1.7734 0.95388-5.7904 2.1697-10.177 2.1697-5.6762 0-10.768-1.8137-11.608-7.725h-0.53739c-2.4183 4.8365-8.867 7.7922-15.652 7.7922-9.673 0-15.786-6.2472-15.786-15.316 0-11.151 7.322-12.965 19.279-15.45l10.412-1.8137v-7.1137c0-6.9995-2.1496-10.479-9.0685-10.479-0.94044 0-2.6198 0.12091-3.6946 0.22839zm38.128 43.576 5.777-2.6198v-36.946l-6.0792-2.8213v-4.9037l22.483-3.5602h1.5248v7.2548h0.60457c4.9037-4.4335 11.487-7.1876 18.809-7.1876 9.2028 0 13.771 4.5678 13.771 14.577v33.654l5.8441 2.687v5.038h-29.758v-4.9709l5.8441-2.6332v-29.819c0-5.5351-2.4183-7.6041-7.322-7.6041-2.687 0-5.2396 0.49037-7.4563 1.3838v35.804l5.777 2.6735v5.0179h-29.691v-5.038zm-112.18-61.934-6.0591-2.7541v-4.9709l22.664-3.6274h1.5248v68.988l5.777 3.1572v4.7022l-21.496 2.4854h-1.4778v-5.6426h-0.60456c-2.2839 2.8885-6.9189 5.9113-13.704 5.9113-9.9418 0-21.832-6.3144-21.832-27.205 0-21.966 12.158-29.892 26.601-29.892 3.0228 0 6.583 0.67174 8.7998 2.2839v-13.435zm0 57.367v-36.885c-1.4106-1.0748-2.8885-1.9682-6.18-1.9682-5.6695 0-10.009 5.1052-10.009 20.488 0 13.475 3.4259 19.346 10.6 19.346 2.7877 0 4.3529-0.56426 5.5754-1.0614zm-224.86 27.743c-9.9014 0-13.3-3.493-13.3-7.2548 0-2.6198 0.69861-4.4335 2.0958-6.1128h19.165c4.4805 0 6.5159 1.3435 6.5159 4.1648 0.0134 5.6426-3.1236 9.2028-14.476 9.2028zm0.1545-67.711c3.9633 0 6.5159 1.7465 6.5159 12.629s-2.5593 12.017-6.4554 12.017-6.4084-0.90685-6.4084-12.004c0-11.084 2.4854-12.629 6.4353-12.629zm12.024 37.819h-19.48c-2.0824 0-3.8289-1.6122-3.8289-3.493 0-1.4778 1.0748-3.0228 2.4183-4.0304 2.9557 0.87326 5.3739 1.142 9.0013 1.142 14.039 0 23.645-6.3815 23.645-18.271 0-5.3067-2.2167-8.3296-5.7098-11.42v-0.40304l9.0013 3.1572 1.2091 0.0672v-10.956h-1.0076l-13.858 2.7541h-0.77c-3.4527-1.2763-8.2624-2.6198-12.629-2.6198-14.039 0-23.753 6.966-23.753 18.795 0 7.2078 3.6274 12.575 9.0483 15.544v0.57097c-3.1303 2.2033-9.1357 6.7308-9.1357 12.528 0 4.232 2.7944 8.4169 8.6386 9.6731v0.58441c-6.1464 1.2763-13.032 3.2915-13.032 10.345 0 7.2548 10.513 12.629 27.649 12.629 21.294 0 30.51-8.1952 30.51-21.16 0-10.681-5.9113-15.652-17.935-15.652zm136.43-40.573v4.9709l6.1128 2.8213v36.946l-5.777 2.687v5.038h31.296v-4.9709l-7.4563-2.687v-30.437c3.09-1.4778 7.154-1.9749 12.024-1.9749 1.5987 0 3.493 0.20152 4.588 0.49037v-15.914c-0.60457-0.20152-1.7936-0.29556-2.687-0.29556-5.9785 0-10.862 3.8491-14.053 11.151h-0.53739v-11.53h-1.545l-21.966 3.614zm-24.989 41.849v-14.778l-4.1648 0.40305c-4.1648 0.40304-7.5907 3.2244-7.5907 8.4639 0 6.0457 3.2915 7.9937 6.7846 7.9937 2.0152 0 4.0708-1.0076 5.0649-2.0824zm-12.83-38.088-3.8289 11.151h-9.4044v-14.382c5.1052-1.5719 11.285-4.1379 20.824-4.1379 14.577 0 23.309 4.2991 23.309 16.525v31.706l5.777 2.687v4.111c-1.7465 0.95388-5.777 2.1697-10.143 2.1697-5.6426 0-10.748-1.8137-11.554-7.725h-0.5374c-2.4183 4.8365-8.867 7.7922-15.611 7.7922-9.6529 0-15.719-6.2472-15.719-15.316 0-11.151 7.369-12.965 19.319-15.45l10.466-1.8137v-7.1137c0-6.9995-2.1093-10.479-9.0685-10.479-0.90684 0-2.6198 0.12091-3.708 0.22839zm-74.832 3.9633-6.0457-2.8213v-4.9037l22.705-3.5602h1.545v38.35c0 6.2136 3.043 7.322 7.6242 7.322 3.3587 0 4.7022-0.60457 6.5159-1.2965v-33.097l-6.1128-2.8213v-4.9507l22.638-3.614h1.4778v46.619l6.0457 3.1572v4.729l-22.033 2.4183h-1.5853l-0.0202-7.2548h-0.60456c-3.4796 4.2991-9.223 7.4563-16.592 7.4563-10.949 0-15.631-7.7922-15.631-17.264v-28.475zm228.92-33.862c5.3739 0 9.7066 4.3462 9.7066 9.7134 0 5.3605-4.3462 9.7134-9.7134 9.7134-5.3739 0-9.7402-4.2991-9.7402-9.6731 0-5.3739 4.3663-9.673 9.7402-9.673zm132 75.477 11.581 0.0269"/>
</g>
<g transform="matrix(.75663 0 0 .75663 -202.37 398.09)" fill="#ccc">
<path d="m1245.5 721.12c15.155 40.702-18.33 42.146-36.794 68.027-12.858 18.024-15.023 57.688 31.309 68.081-19.485-10.248-23.671-39.981-2.5981-58.6-5.4406 18.057 4.5567 29.631 17.126 25.382 12.319-4.1644 20.322 4.6825 20.113 14.744-0.1444 6.9281-2.3094 12.268-9.9592 16.165 0 0 42.29-8.0827 42.29-49.362 0-25.114-22.372-28.596-11.114-49.651-13.423 1.1547-18.058 9.9272-16.743 24.393 0.8659 9.5261-9.0931 16.069-16.454 11.694-5.9791-3.5538-5.7735-10.557-0.5773-15.735 11.063-11.024 15.444-36.228-16.599-55.136z"/>
<g transform="matrix(.63583 0 0 .63583 733.79 510.55)">
<g fill="#ccc" transform="matrix(1.25 0 0 -1.25 85.589 539.25)">
<g fill="#ccc" transform="scale(.1)">
<g fill="#ccc">
<g clip-path="url(#a)" fill="#ccc">
<path d="m924.97 742.88h-403.57c-10.41 0-18.855-8.449-18.855-18.867v-197.3c0-10.41 8.445-18.887 18.855-18.887h157.43v-245.14s-35.356-12.051-133.08-12.051c-115.3 0-276.37 42.133-276.37 396.31 0 354.26 167.71 400.87 325.18 400.87 136.3 0 195.02-24 232.38-35.56 11.738-3.6 22.598 8.09 22.598 18.51l45.019 190.64c0 4.87-1.648 10.74-7.207 14.73-15.175 10.82-107.75 62.62-341.6 62.62-269.4 0-545.75-114.7-545.75-665.67 0-551.02 316.4-633.13 583.02-633.13 220.76 0 354.68 94.34 354.68 94.34 5.52 3.0508 6.113 10.762 6.113 14.301v615.37c0 10.418-8.433 18.867-18.843 18.867"/>
<path d="m3004.8 1232.7c0 10.5-8.32 18.97-18.73 18.97h-227.23c-10.38 0-18.82-8.47-18.82-18.97 0-0.05 0.06-439.12 0.06-439.12h-354.19v439.12c0 10.5-8.36 18.97-18.75 18.97h-227.22c-10.34 0-18.77-8.47-18.77-18.97v-1189c0-10.488 8.43-19.027 18.77-19.027h227.22c10.39 0 18.75 8.539 18.75 19.027v508.59h354.19s-0.62-508.55-0.62-508.59c0-10.488 8.43-19.027 18.82-19.027h227.77c10.41 0 18.73 8.539 18.75 19.027v1189"/>
<path d="m1353.8 1076.7c0 81.82-65.6 147.94-146.53 147.94-80.85 0-146.5-66.12-146.5-147.94 0-81.735 65.65-148.03 146.5-148.03 80.93 0 146.53 66.297 146.53 148.03"/>
<path d="m1337.5 294.52v548.86c0 10.422-8.41 18.941-18.8 18.941h-226.51c-10.39 0-19.69-10.718-19.69-21.136v-786.35c0-23.113 14.4-29.98 33.04-29.98h204.08c22.39 0 27.88 10.988 27.88 30.348v239.32"/>
<path d="m3868.3 860.53h-225.49c-10.34 0-18.76-8.523-18.76-19.011v-583.02s-57.28-41.91-138.59-41.91c-81.3 0-102.88 36.89-102.88 116.5v508.43c0 10.488-8.4 19.011-18.75 19.011h-228.85c-10.33 0-18.79-8.523-18.79-19.011v-546.93c0-236.46 131.79-294.31 313.09-294.31 148.73 0 268.65 82.168 268.65 82.168s5.71-43.301 8.29-48.438c2.59-5.1211 9.32-10.293 16.59-10.293l145.59 0.6406c10.33 0 18.79 8.539 18.79 18.98l-0.07 798.18c0 10.488-8.43 19.011-18.82 19.011"/>
<path d="m4395.7 217.31c-78.21 2.382-131.26 37.871-131.26 37.871v376.54s52.34 32.078 116.55 37.812c81.2 7.274 159.44-17.254 159.44-210.96 0-204.26-35.31-244.57-144.73-241.27zm88.94 669.93c-128.07 0-215.18-57.14-215.18-57.14v402.63c0 10.5-8.39 18.97-18.75 18.97h-227.87c-10.36 0-18.78-8.47-18.78-18.97v-1189c0-10.488 8.42-19.027 18.81-19.027h158.1c7.12 0 12.51 3.6679 16.49 10.098 3.93 6.3907 9.6 54.82 9.6 54.82s93.18-88.301 269.57-88.301c207.08 0 325.84 105.04 325.84 471.55s-189.67 414.41-317.83 414.41"/>
<path d="m1990.6 862.43h-170.45s-0.26 225.13-0.26 225.18c0 8.52-4.39 12.78-14.24 12.78h-232.28c-9.03 0-13.88-3.97-13.88-12.65v-232.7s-116.4-28.102-124.27-30.371c-7.84-2.274-13.61-9.5-13.61-18.125v-146.23c0-10.515 8.4-18.996 18.79-18.996h119.09v-351.78c0-261.29 183.28-286.96 306.96-286.96 56.51 0 124.11 18.152 135.27 22.273 6.75 2.4804 10.67 9.4687 10.67 17.047l0.19 160.86c0 10.488-8.86 18.976-18.84 18.976-9.93 0-35.34-4.039-61.5-4.039-83.72 0-112.09 38.93-112.09 89.317 0 50.351-0.01 334.31-0.01 334.31h170.46c10.39 0 18.8 8.481 18.8 18.996v183.16c0 10.497-8.41 18.946-18.8 18.946"/>
</g>
</g>
</g>
</g>
</g>
</g>
<path d="m11.341 802.36v126.61h126.61v-126.61h-126.61zm7.3609 7.3608h111.89v111.89h-111.89v-111.89zm26.536 16.157 24.438 48.398v27.438h9.9372v-27.438l24.401-48.398h-10.802l-18.586 36.436-17.869-36.436h-11.52z" fill="#ccc"/>
<path d="m29.329 1002.1v-39.108h160.34 160.34v39.108 39.108h-160.34-160.34v-39.108zm29.331 0v-26.072h-8.1474-8.1474v26.072 26.072h8.1474 8.1474v-26.072zm32.847 25.257c-1.3412-2.3197-16.656-24.605-16.908-24.605-0.16273 0-0.29589 5.7196-0.29589 12.71v12.71h8.8377c6.8868 0 8.7337-0.1798 8.3666-0.8147zm37.644-1.0974c7.5735-2.3746 13.972-7.4216 17.894-14.114 3.2839-5.6037 4.2385-10.522 4.6381-23.897l0.3652-12.221h-8.1661-8.1661l-0.2412 11.569c-0.2305 11.056-0.3207 11.732-2.0349 15.233-1.7909 3.6581-4.6581 6.264-8.4608 7.6899l-1.7924 0.6721v-17.582-17.582h-8.1474-8.1474v26.168 26.168l8.9621-0.3732c6.408-0.267 10.197-0.7606 13.297-1.7323zm66.385-5.2577v-7.1697h-11.406-11.406v-2.6071-2.6072h10.429 10.429v-6.844-6.8438h-10.429-10.429v-2.2813-2.2813h11.406 11.406v-7.1697-7.1697h-19.554-19.554v26.072 26.072h19.554 19.554v-7.1698zm22.813-0.3259v-7.4956h1.8078c1.6183 0 2.2505 0.7685 6.0329 7.3327l4.2252 7.3327 8.9583 0.1813c4.9271 0.1 8.9583 0.05 8.9583-0.1095 0-0.16-2.3192-4.0343-5.1537-8.6096l-5.1538-8.3187 3.1256-2.8101c4.0117-3.607 5.3707-6.9513 5.3861-13.255 0.02-8.3371-3.3048-13.868-10.262-17.07-3.0613-1.4089-4.1977-1.5123-18.739-1.7055l-15.48-0.2055v26.114 26.114h8.1474 8.1474v-7.4957zm0-25.746v-5.2143h4.4747c5.7736 0 7.9094 1.4207 7.9094 5.2616 0 4.0749-1.5843 5.167-7.4956 5.167h-4.8885v-5.2144zm61.172 32.549c8.0897-1.7349 12.097-6.8882 12.134-15.603 0.017-4.1716-0.2402-5.332-1.7579-7.9139-0.9782-1.6639-3.0681-3.8796-4.6444-4.9236-2.6773-1.7734-4.646-2.4745-14.302-5.0939-4.1078-1.1143-5.3317-2.5652-3.3724-3.9979 0.8997-0.658 3.9222-0.8835 11.838-0.8835h10.63v-6.5179-6.5179h-11.614c-12.914 0-16.352 0.6362-20.782 3.8458-3.794 2.7483-5.6948 7.0292-5.6722 12.775 0.037 9.4682 4.1166 13.248 17.584 16.291 7.7407 1.7491 8.1006 1.911 8.1006 3.6437 0 2.0737-2.6371 2.5526-14.056 2.5526h-10.712v6.518 6.5179h11.7c6.4351 0 13.152-0.3114 14.927-0.6921zm57.454-6.4777v-7.1697h-11.406-11.406v-2.6071-2.6072h10.429 10.429v-6.844-6.8438h-10.429-10.429v-2.2813-2.2813h11.406 11.406v-7.1697-7.1697h-19.554-19.554v26.072 26.072h19.554 19.554v-7.1698zm-245.73-33.242v-11.732h-8.5276c-4.6902 0-8.4299 0.2549-8.3104 0.5665 0.53049 1.3834 15.873 22.898 16.329 22.898 0.28008 0 0.50922-5.2795 0.50922-11.732z" fill="#ccc"/>
<g transform="matrix(.83242 0 0 .83242 783.3 938.07)">
<g fill="#ccc" transform="matrix(1.2324 0 0 1.2324 31.769 -200.89)">
<path d="m39.217 146.92c4.19 0 9.227 2.047 9.227 8.832 0 6.02-3.771 9.4-9.227 9.4h-9.886v-18.232h9.886zm-6.229 14.574h6.229c3.208 0 5.562-1.829 5.562-5.524 0-4.288-2.706-5.376-5.562-5.376h-6.229v10.9z" fill="#ccc"/>
<path d="m30.748 207.39c3.163 2.039 6.183 2.781 9.392 2.781 1.829 0 4.916-0.451 4.916-2.496 0-1.484-1.61-1.867-2.735-1.896l-5.449-0.173c-4.468-0.104-6.664-2.713-6.664-5.53 0-2.714 2.009-5.593 8.552-5.593 4.79 0 7.705 1.829 8.8 2.392l-1.649 3.237c-1.447-0.741-4.085-1.972-7.706-1.972-1.933 0-4.332 0.421-4.332 2.039 0 1.409 2.001 1.762 3.246 1.762l4.744 0.18c4.191 0.106 6.858 1.897 6.858 5.727 0 3.276-2.563 5.989-8.582 5.989-4.925 0-8.553-1.229-11.086-3.178l1.695-3.269z" fill="#ccc"/>
<path d="m47.439 243.15v3.651h-6.715v14.563h-3.666v-14.563h-6.724v-3.651h17.105z" fill="#ccc"/>
<path d="m78.928 146.92h4.857l8.942 18.232h-4.16l-1.828-3.838h-10.659l-1.837 3.838h-4.145l8.83-18.232zm-1.049 10.736h7.031l-3.516-7.175-3.515 7.175z" fill="#ccc"/>
<path d="m76.469 195.04v7.923l7.848-7.923h4.677l-6.401 6.476 7.419 11.754h-4.399l-5.705-9.01-3.44 3.372v5.638h-3.657v-18.229h3.658z" fill="#ccc"/>
<path d="m83.238 243.15v18.215h-3.65v-18.215h3.65z" fill="#ccc"/>
<path d="m130.63 146.92v3.673h-6.723v14.559h-3.657v-14.56h-6.725v-3.673h17.105z" fill="#ccc"/>
<path d="m129.96 195.04v3.657h-12.519v3.313h6.603v3.65h-6.603v3.95h12.946v3.658h-16.62v-18.23h16.184z" fill="#ccc"/>
<path d="m129.88 249.23c-1.191-0.98-3.695-2.976-7.247-2.976-4.506 0-7.151 3.149-7.151 6.102 0 2.722 2.331 5.914 7.569 5.914 3.238 0 6.125-1.401 7.639-2.563l1.649 3.374c-2.562 1.903-6.507 2.854-9.317 2.854-6.123 0-11.19-3.342-11.19-9.683 0-6.424 5.906-9.67 10.973-9.67 4.716 0 7.285 2.075 9.22 3.455l-2.145 3.193z" fill="#ccc"/>
<path d="m159.15 146.92h4.857l8.941 18.232h-4.159l-1.829-3.838h-10.659l-1.829 3.838h-4.151l8.829-18.232zm-1.05 10.736h7.032l-3.516-7.175-3.516 7.175z" fill="#ccc"/>
<path d="m163.81 195.04c3.546 0 6.589 1.552 6.589 5.772 0 4.077-2.826 5.875-6.589 5.875h-7.285v6.582h-3.657v-18.229h10.942zm-7.285 7.982h7.285c1.409 0 2.915-0.172 2.915-2.21 0-1.935-1.611-2.115-2.915-2.115h-7.285v4.325z" fill="#ccc"/>
<path d="m152.52 250.37h18.222v3.649h-18.222v-3.649z" fill="#ccc"/>
<path d="m92.27 56.82-22.666-25.174c-0.472-0.524-1.146-0.824-1.851-0.824h-36.983c-1.199-0.341-2.48 0.215-2.976 1.39-0.143 0.341-0.19 0.694-0.179 1.041 0 0.022-0.015 0.041-0.015 0.063v82.03 0.012 0.111c0 1.377 1.116 2.494 2.496 2.494h39.059c0.75 0 1.454-0.335 1.926-0.913l21.647-26.407c0.367-0.446 0.57-1.004 0.57-1.582v-0.163-0.011-29.97c0-0.024-0.015-0.045-0.015-0.069 0.021-0.8-0.365-1.54-1.013-2.028zm-59.679-19.88 55.714 23.495v26.849l-55.714 24.236v-74.58zm48.668 15.107-38.508-16.236h23.892l14.616 16.236zm-13.286 60.933h-26.215l40.745-17.73-14.53 17.73z"/>
<path d="m174.33 102.71c-0.003-0.073 0.026-0.144 0.02-0.217v-26.267c0-0.947-0.54-1.812-1.387-2.234l-13.4-6.663 14.37-19.919c0.689-0.958 0.614-2.266-0.176-3.139l-11.45-12.589c-0.475-0.52-1.146-0.816-1.848-0.816h-37.968c-0.704 0-1.38 0.298-1.852 0.821l-11.445 12.653c-0.085 0.095-0.113 0.224-0.18 0.331-0.105 0.162-0.211 0.315-0.276 0.499-0.067 0.175-0.088 0.352-0.109 0.539-0.013 0.104-0.064 0.197-0.064 0.304v26.577c0 0.946 0.54 1.812 1.387 2.233l13.365 6.637-14.313 19.974c-0.686 0.956-0.612 2.261 0.184 3.131l11.446 12.585c0.471 0.52 1.139 0.815 1.844 0.815h37.968c0.705 0 1.375-0.298 1.848-0.82l11.453-12.661c0.12-0.129 0.165-0.294 0.251-0.44 0.034-0.053 0.094-0.075 0.121-0.131 0.025-0.051 0.019-0.105 0.04-0.156 0.072-0.172 0.113-0.345 0.143-0.529 0.028-0.172 0.044-0.34 0.039-0.512zm-50.74-66.861h35.754l9.351 10.276-13.671 18.949-39.93-19.835 8.496-9.39zm-10.04 14.191 55.81 27.728v21l-55.81-27.727v-21.001zm45.782 62.935h-35.76l-9.349-10.279 13.606-18.989 40.002 19.87-8.499 9.398z"/>
</g>
</g>
</g>
</g>
</svg>
