<svg xmlns="http://www.w3.org/2000/svg" viewBox="0 0 640.32001 173.16" height="173.16" width="640.32"><defs><clipPath id="a"><path d="M0 0h4802v1298.75H0z"/></clipPath></defs><g clip-path="url(#a)" fill="#fff" transform="matrix(.13333 0 0 -.13333 0 173.16)"><path d="M924.973 742.875H521.406c-10.41 0-18.855-8.45-18.855-18.867V526.703c0-10.41 8.446-18.887 18.856-18.887H678.84V262.68s-35.356-12.05-133.078-12.05c-115.3 0-276.367 42.132-276.367 396.31 0 354.26 167.714 400.87 325.175 400.87 136.297 0 195.02-24 232.383-35.56 11.738-3.6 22.598 8.09 22.598 18.51l45.02 190.64c0 4.87-1.648 10.74-7.207 14.73-15.175 10.82-107.746 62.62-341.6 62.62C276.347 1298.75 0 1184.13 0 633.13 0 82.11 316.395 0 583.02 0c220.757 0 354.683 94.34 354.683 94.34 5.52 3.05 6.113 10.762 6.113 14.3V724.01c0 10.418-8.433 18.867-18.843 18.867M3004.75 1232.73c0 10.5-8.32 18.97-18.73 18.97h-227.23c-10.38 0-18.82-8.47-18.82-18.97l.06-439.125h-354.19v439.125c0 10.5-8.36 18.97-18.75 18.97h-227.22c-10.34 0-18.77-8.47-18.77-18.97V43.7c0-10.49 8.43-19.028 18.77-19.028h227.22c10.39 0 18.75 8.54 18.75 19.027v508.59h354.19l-.62-508.59c0-10.49 8.43-19.028 18.82-19.028H2986c10.41 0 18.73 8.54 18.75 19.027v1189.03M1353.76 1076.7c0 81.82-65.6 147.94-146.53 147.94-80.85 0-146.5-66.12-146.5-147.94 0-81.735 65.65-148.032 146.5-148.032 80.93 0 146.53 66.297 146.53 148.032M1337.51 294.52v548.86c0 10.42-8.41 18.94-18.8 18.94H1092.2c-10.39 0-19.69-10.718-19.69-21.136V54.832c0-23.113 14.4-29.98 33.04-29.98h204.08c22.39 0 27.88 10.988 27.88 30.347v239.32M3868.32 860.53h-225.49c-10.34 0-18.76-8.522-18.76-19.01V258.5s-57.28-41.91-138.59-41.91c-81.3 0-102.88 36.89-102.88 116.5v508.43c0 10.488-8.4 19.01-18.75 19.01H3135c-10.33 0-18.79-8.522-18.79-19.01V294.59C3116.21 58.13 3248 .28 3429.3.28c148.73 0 268.65 82.17 268.65 82.17s5.71-43.302 8.29-48.438c2.59-5.12 9.32-10.293 16.59-10.293l145.59.64c10.33 0 18.79 8.538 18.79 18.98l-.07 798.18c0 10.488-8.43 19.01-18.82 19.01M4395.67 217.31c-78.21 2.38-131.26 37.87-131.26 37.87v376.543s52.34 32.078 116.55 37.812c81.2 7.274 159.44-17.254 159.44-210.957 0-204.258-35.31-244.566-144.73-241.27zm88.94 669.932c-128.07 0-215.18-57.14-215.18-57.14v402.628c0 10.5-8.39 18.97-18.75 18.97h-227.87c-10.36 0-18.78-8.47-18.78-18.97V43.7c0-10.49 8.42-19.028 18.81-19.028h158.1c7.12 0 12.51 3.668 16.49 10.098 3.93 6.39 9.6 54.82 9.6 54.82s93.18-88.3 269.57-88.3c207.08 0 325.84 105.042 325.84 471.546 0 366.512-189.67 414.406-317.83 414.406M1990.58 862.426h-170.45l-.26 225.184c0 8.52-4.39 12.78-14.24 12.78h-232.28c-9.03 0-13.88-3.97-13.88-12.65V855.043s-116.4-28.102-124.27-30.37c-7.84-2.275-13.61-9.5-13.61-18.126V660.32c0-10.515 8.4-18.996 18.79-18.996h119.09V289.54c0-261.29 183.28-286.962 306.96-286.962 56.51 0 124.11 18.153 135.27 22.274 6.75 2.48 10.67 9.468 10.67 17.046l.19 160.864c0 10.488-8.86 18.976-18.84 18.976-9.93 0-35.34-4.04-61.5-4.04-83.72 0-112.09 38.93-112.09 89.318 0 50.35-.01 334.308-.01 334.308h170.46c10.39 0 18.8 8.48 18.8 18.996v183.16c0 10.497-8.41 18.946-18.8 18.946"/></g></svg>
