<?xml version="1.0" encoding="UTF-8" standalone="no"?>
<svg xmlns:rdf="http://www.w3.org/1999/02/22-rdf-syntax-ns#" xmlns="http://www.w3.org/2000/svg" version="1.1" xmlns:cc="http://creativecommons.org/ns#" xmlns:xlink="http://www.w3.org/1999/xlink" viewBox="0 0 475 110" xmlns:dc="http://purl.org/dc/elements/1.1/">
<metadata>
<rdf:RDF>
<cc:Work rdf:about="">
<dc:format>image/svg+xml</dc:format>
<dc:type rdf:resource="http://purl.org/dc/dcmitype/StillImage"/>
<dc:title/>
</cc:Work>
</rdf:RDF>
</metadata>
<g transform="translate(0 -942.36)" fill="#fff">
<path d="m187.25 1027.8c-2.1845 2.616-5.2724 4.6521-9.2638 6.1084-3.9914 1.4294-8.4143 2.1441-13.269 2.1441-5.0971 0-9.5739-1.1058-13.43-3.3172-3.8296-2.2384-6.7961-5.4746-8.8997-9.7087-2.0766-4.2341-3.1419-9.2098-3.1958-14.927v-4.0049c0-5.8791 0.98436-10.963 2.9531-15.251 1.9957-4.3149 4.8544-7.6051 8.576-9.8706 3.7486-2.2923 8.131-3.4384 13.147-3.4385 6.9849 0.00006 12.446 1.6721 16.384 5.0162 3.9374 3.3172 6.2702 8.1581 6.9984 14.523h-11.812c-0.53941-3.371-1.7395-5.8387-3.6003-7.4029-1.8339-1.5641-4.369-2.3462-7.6052-2.3463-4.1262 0.00005-7.2681 1.5508-9.4256 4.6521-2.1575 3.1014-3.2498 7.7131-3.2767 13.835v3.7621c-0.00001 6.1758 1.1731 10.841 3.5194 13.997 2.3463 3.1553 5.7848 4.733 10.316 4.733 4.5577 0 7.8074-0.9709 9.7492-2.9127v-10.154h-11.044v-8.9401h23.18v23.503"/>
<path d="m217.74 1035.2h-12.136v-58.9h12.136v58.9"/>
<path d="m279.61 986.18h-18.042v49.07h-12.136v-49.07h-17.799v-9.8301h47.977v9.8301"/>
<path d="m341.97 1035.2h-12.136v-25.243h-23.665v25.243h-12.136v-58.9h12.136v23.867h23.665v-23.867h12.136v58.9"/>
<path d="m404.65 976.35v38.794c-0.00005 6.4456-2.0227 11.543-6.068 15.291-4.0184 3.7486-9.52 5.623-16.505 5.623-6.877 0-12.338-1.8204-16.384-5.4612-4.0453-3.6408-6.1084-8.6435-6.1893-15.008v-39.239h12.136v38.875c-0.00001 3.8566 0.91692 6.6748 2.7508 8.4547 1.8608 1.753 4.4228 2.6295 7.6861 2.6295 6.823 0 10.289-3.5869 10.396-10.761v-39.199h12.176"/>
<path d="m422.07 1035.2v-58.9h20.631c7.1467 0.00006 12.567 1.3755 16.262 4.1262 3.6947 2.7239 5.542 6.7288 5.5421 12.015-0.00005 2.8857-0.74168 5.4342-2.2249 7.6456-1.4833 2.1845-3.5464 3.7892-6.1893 4.8139 3.0205 0.7552 5.3937 2.2789 7.1197 4.5712 1.7529 2.2924 2.6294 5.0971 2.6294 8.4143-0.00005 5.6634-1.807 9.9514-5.4207 12.864-3.6138 2.9126-8.7649 4.3959-15.453 4.4498h-22.896m12.136-25.647v15.898h10.396c2.8586 0 5.0836-0.6742 6.6748-2.0227 1.6181-1.3753 2.4272-3.2632 2.4272-5.6634-0.00004-5.3937-2.7913-8.131-8.3738-8.212h-11.125m0-8.576h8.9806c6.1219-0.1079 9.1828-2.5485 9.1828-7.322-0.00004-2.6699-0.78213-4.5846-2.3463-5.7443-1.5372-1.1866-3.9779-1.7799-7.322-1.7799h-8.4951v14.846"/>
<path d="m52.507 953.39c-28.117 0-50.814 22.697-50.814 50.813 0 22.358 14.567 41.328 34.892 48.104 2.71 0.3388 3.3876-1.0162 3.3876-2.3714v-8.8076c-14.228 3.0488-17.277-6.7751-17.277-6.7751-2.3713-5.7588-5.7589-7.4526-5.7589-7.4526-4.7426-3.049 0.33876-3.049 0.33876-3.049 5.0814 0.3388 7.7914 5.0814 7.7914 5.0814 4.4038 7.7916 11.857 5.4202 14.905 4.0652 0.33876-3.3876 1.6938-5.4202 3.3876-6.7752-11.179-1.355-23.035-5.7589-23.035-25.068 0-5.4201 2.0325-10.163 5.0814-13.55-0.67752-1.355-2.3713-6.4364 0.33876-13.55 0 0 4.4038-1.355 13.889 5.0814 4.0651-1.0163 8.4689-1.6938 12.873-1.6938 4.4038 0 8.8077 0.67752 12.873 1.6938 9.824-6.4364 13.889-5.0814 13.889-5.0814 2.7101 7.1139 1.0163 12.195 0.33875 13.55 3.3876 3.3876 5.0814 8.1302 5.0814 13.55 0 19.648-11.856 23.713-23.035 25.068 1.6938 1.6938 3.3876 4.7426 3.3876 9.4852v13.889c0 1.355 1.0163 3.0488 3.3876 2.3712 20.325-6.7752 34.553-25.746 34.553-48.103 0.33875-27.778-22.358-50.475-50.475-50.475z" fill-rule="evenodd" clip-rule="evenodd"/>
</g>
</svg>
