<?xml version="1.0" encoding="UTF-8" standalone="no"?>
<svg xmlns:rdf="http://www.w3.org/1999/02/22-rdf-syntax-ns#" xmlns="http://www.w3.org/2000/svg" version="1.1" xmlns:cc="http://creativecommons.org/ns#" xmlns:xlink="http://www.w3.org/1999/xlink" viewBox="0 0 500 110" xmlns:dc="http://purl.org/dc/elements/1.1/">
<metadata>
<rdf:RDF>
<cc:Work rdf:about="">
<dc:format>image/svg+xml</dc:format>
<dc:type rdf:resource="http://purl.org/dc/dcmitype/StillImage"/>
<dc:title/>
</cc:Work>
</rdf:RDF>
</metadata>
<g fill="#fff" transform="translate(0 -942.36)">
<path d="m2.2995 1001.5c-0.34353 0-0.61623 0.2656-0.6605 0.6446l-1.2041 9.1459 1.2041 8.9885c0.044269 0.3789 0.31697 0.6428 0.6605 0.6428 0.33291 0 0.60383-0.262 0.65696-0.6392l1.4272-8.9921-1.4272-9.1478c-0.051352-0.3771-0.32582-0.6427-0.65696-0.6427zm6.7714-4.9972c-0.056667-0.39311-0.33822-0.66404-0.68529-0.66404-0.34884 0-0.63748 0.27979-0.68529 0.66404l-1.6185 14.788 1.6185 14.46c0.046035 0.3878 0.33468 0.6677 0.68529 0.6677 0.3453 0 0.62685-0.2728 0.68352-0.6642l1.8419-14.5-1.84-14.82zm25.506-13.66c-0.66404 0-1.213 0.54362-1.2449 1.2342l-1.2891 27.206 1.2891 17.582c0.03364 0.6871 0.58081 1.2289 1.2449 1.2289 0.6605 0 1.2077-0.5436 1.2466-1.2324l1.4574-17.584-1.4574-27.206c-0.03895-0.6906-0.58612-1.2342-1.2466-1.2342zm-13.201 9.4559c-0.50998 0-0.92612 0.40727-0.96684 0.9509l-1.452 18.027 1.452 17.44c0.03895 0.5401 0.45686 0.9474 0.96684 0.9474 0.50467 0 0.9208-0.4073 0.96507-0.9474l1.6504-17.44-1.6504-18.03c-0.04427-0.5401-0.4604-0.94737-0.96507-0.94737zm26.616 37.794c0.82341 0 1.4928-0.664 1.5264-1.514l1.2643-17.286-1.2626-36.221c-0.03364-0.84998-0.70299-1.514-1.5264-1.514-0.83049 0-1.5016 0.66581-1.5282 1.5158 0 0.002-1.1209 36.218-1.1209 36.218l1.1209 17.293c0.02656 0.8429 0.69769 1.5087 1.5264 1.5087zm27.465 0.082c1.1333 0 2.0683-0.9332 2.0895-2.0807v0.018-0.018l0.88184-16.79-0.88184-41.833c-0.01948-1.1457-0.95622-2.0806-2.0895-2.0806-1.1351 0-2.0718 0.93319-2.0895 2.0824l-0.788 41.817c0 0.026 0.788 16.815 0.788 16.815 0.01771 1.1369 0.95622 2.0701 2.0895 2.0701zm-13.837-0.066c0.98632 0 1.7814-0.7916 1.808-1.8009v0.017l1.0731-17.024-1.0749-36.483c-0.02657-1.0093-0.82164-1.7991-1.808-1.7991-0.9934 0-1.7885 0.78976-1.8097 1.7991l-0.95444 36.485 0.95622 17.021c0.02125 0.9986 0.81633 1.7902 1.8097 1.7902zm-33.669-0.1594c0.58613 0 1.0607-0.4692 1.105-1.0873l1.5547-17.585-1.5547-16.729c-0.0425-0.61801-0.51706-1.0837-1.105-1.0837-0.59498 0-1.0695 0.46924-1.1067 1.0908l-1.3688 16.722 1.3688 17.584c0.03895 0.6199 0.51175 1.0891 1.1067 1.0891zm-13.097-0.9c0.42853 0 0.7756-0.3382 0.82518-0.8057l1.746-16.907-1.7442-17.545c-0.05135-0.46925-0.39842-0.80748-0.82695-0.80748-0.43384 0-0.78091 0.33999-0.82518 0.80748l-1.537 17.545 1.537 16.904c0.04249 0.4692 0.38957 0.8092 0.82518 0.8092zm53.658-54.781c-1.0713 0-1.9301 0.85174-1.9514 1.9426l-0.87122 35.152 0.87122 16.914c0.02125 1.0766 0.8783 1.9283 1.9514 1.9283 1.0695 0 1.9231-0.85 1.9479-1.9407v0.017l0.97747-16.914-0.97747-35.157c-0.0248-1.0872-0.8783-1.939-1.9479-1.939zm-27.252 55.88c0.74018 0 1.3511-0.6039 1.3865-1.3742l1.36-17.465-1.36-33.429c-0.03718-0.77206-0.64633-1.3741-1.3865-1.3741-0.74726 0-1.3564 0.60383-1.3883 1.3741l-1.2041 33.429 1.2059 17.472c0.0301 0.7632 0.63925 1.3671 1.3865 1.3671zm15.186-1.6486l1.1687-17.176-1.1687-37.441c-0.02833-0.92966-0.76143-1.6592-1.6663-1.6592-0.91018 0-1.6433 0.72779-1.6681 1.6592l-1.0377 37.439 1.0394 17.185c0.0248 0.9208 0.75789 1.6485 1.6663 1.6485 0.90664 0 1.6362-0.7277 1.6663-1.6538zm88.393-38.768c-2.7748 0-5.4221 0.56133-7.8339 1.5724-1.6114-18.253-16.918-32.572-35.589-32.572-4.5686 0-9.0221 0.89955-12.955 2.4206-1.5282 0.59143-1.9355 1.2006-1.9496 2.3817v64.279c0.01594 1.2395 0.97747 2.2719 2.1869 2.3941 0.05135 0 55.778 0.034 56.139 0.034 11.184 0 20.252-9.0682 20.252-20.254s-9.0664-20.256-20.251-20.256zm-62.468-26.28c-1.2165 0-2.2152 0.99872-2.2329 2.2259l-0.91372 45.624 0.91549 16.558c0.01595 1.2094 1.0147 2.2065 2.2312 2.2065 1.213 0 2.2117-0.9971 2.2294-2.2242v0.019l0.9934-16.56-0.9934-45.628c-0.01771-1.2232-1.0164-2.2219-2.2294-2.2219zm-65.582 79.639c-2.3959-0.5631-3.044-0.8642-3.044-1.8133 0-0.6694 0.54009-1.3617 2.1586-1.3617 1.383 0 2.4631 0.5613 3.4335 1.5548l2.1798-2.1144c-1.4255-1.4892-3.152-2.3746-5.5036-2.3746-2.982 0-5.3991 1.684-5.3991 4.427 0 2.9784 1.9443 3.8638 4.728 4.5101 2.8492 0.6463 3.368 1.0803 3.368 2.0523 0 1.1439-0.84466 1.6415-2.6331 1.6415-1.4467 0-2.8067-0.4957-3.8656-1.73l-2.1798 1.9444c1.1439 1.6839 3.3485 2.7411 5.8719 2.7411 4.1259 0 5.9392-1.9425 5.9392-4.813 0-3.283-2.6562-4.1029-5.0538-4.6642zm13.908-6.1092c-4.1224 0-6.5607 3.1945-6.5607 7.7931 0 4.5988 2.4384 7.7915 6.5607 7.7915 4.1224 0 6.5643-3.1927 6.5643-7.7915 0-4.5986-2.4419-7.7931-6.5643-7.7931zm0 12.587c-2.4384 0-3.4548-2.0948-3.4548-4.7918 0-2.6986 1.0164-4.7935 3.4548-4.7935 2.4419 0 3.4548 2.0949 3.4548 4.7935 0 2.697-1.0129 4.7918-3.4548 4.7918zm18.763-3.8639c0 2.4171-1.19 3.9081-3.1095 3.9081-1.9213 0-3.0865-1.5335-3.0865-3.9505v-8.4449h-3.0245v8.4873c0 4.4022 2.4631 6.8636 6.1109 6.8636 3.8426 0 6.1322-2.5269 6.1322-6.906v-8.4449h-3.0227v8.4873zm16.061-2.0948c0 0.8429 0.0425 2.7412 0.0425 3.3025-0.19478-0.3895-0.6906-1.1439-1.0572-1.707l-5.3566-7.9898h-2.8917v15.115h2.9802v-6.6511c0-0.8429-0.0425-2.7411-0.0425-3.3024 0.19301 0.3878 0.69237 1.1439 1.0572 1.707l5.5496 8.2465h2.6987v-15.115h-2.9802v6.3943zm11.593-6.3925h-4.728v15.115h4.5102c3.8868 0 7.7312-2.247 7.7312-7.5577 0-5.5283-3.1962-7.5576-7.5134-7.5576zm-0.21781 12.179h-1.4874v-9.2416h1.5972c3.1962 0 4.5137 1.5316 4.5137 4.6198 0 2.7643-1.4485 4.6218-4.6235 4.6218zm17.079-9.4152c1.36 0 2.2241 0.6056 2.7642 1.6415l2.8067-1.2944c-0.95091-1.9638-2.6792-3.3468-5.5284-3.3468-3.9471 0-6.713 3.1945-6.713 7.7931 0 4.7705 2.6544 7.7915 6.605 7.7915 2.7429 0 4.5562-1.2732 5.5921-3.4106l-2.5464-1.5121c-0.79862 1.3404-1.599 1.923-2.959 1.923-2.2666 0-3.584-2.0736-3.584-4.7918-0.0018-2.8048 1.298-4.7934 3.5628-4.7934zm11.211-2.7642h-3.0227v15.115h9.0841v-2.9819h-6.0614v-12.133zm14.025-0.2355c-4.1259 0-6.5642 3.1945-6.5642 7.7931 0 4.5988 2.4384 7.7915 6.5642 7.7915 4.1224 0 6.5625-3.1927 6.5625-7.7915 0-4.5986-2.4401-7.7931-6.5625-7.7931zm0 12.587c-2.4419 0-3.4548-2.0948-3.4548-4.7918 0-2.6986 1.0129-4.7935 3.4548-4.7935 2.4366 0 3.4512 2.0949 3.4512 4.7935 0 2.697-1.0146 4.7918-3.4512 4.7918zm18.76-3.8639c0 2.4171-1.1846 3.9081-3.1059 3.9081-1.9248 0-3.0882-1.5335-3.0882-3.9505v-8.4449h-3.0227v8.4873c0 4.4022 2.4614 6.8636 6.1109 6.8636 3.8426 0 6.1304-2.5269 6.1304-6.906v-8.4449h-3.0245v8.4873zm11.53-8.4873h-4.7262v15.115h4.5102c3.8886 0 7.7294-2.247 7.7294-7.5577 0-5.5283-3.1945-7.5576-7.5134-7.5576zm-0.21603 12.179h-1.4892v-9.2416h1.599c3.1927 0 4.5102 1.5316 4.5102 4.6198 0 2.7643-1.4467 4.6218-4.6199 4.6218z"/>
<g transform="translate(0,2)">
<path d="m213.35 1024.4h25.398v9.6091h-37.36v-58.053h11.962v48.444"/>
<path d="m265.1 1034.1h-11.962v-58.053h11.962v58.053"/>
<path d="m313.06 1018.8c-0.00004-2.2594-0.79747-3.9872-2.3923-5.1834-1.5949-1.2227-4.4657-2.4986-8.6123-3.8276-4.1467-1.3557-7.4295-2.6847-9.8483-3.9872-6.5921-3.5619-9.8882-8.3598-9.8882-14.394-0.00001-3.1365 0.87717-5.9276 2.6315-8.3731 1.7809-2.472 4.3194-4.3991 7.6155-5.7814 3.3226-1.3822 7.044-2.0733 11.164-2.0733 4.1466 0.00006 7.8414 0.75762 11.084 2.2727 3.2429 1.4886 5.7548 3.6018 7.5358 6.3396 1.8075 2.7379 2.7112 5.8479 2.7113 9.33h-11.962c-0.00004-2.6581-0.83734-4.7181-2.5119-6.1801-1.6746-1.4885-4.0271-2.2328-7.0573-2.2328-2.924 0.00005-5.1966 0.6247-6.8181 1.874-1.6215 1.2228-2.4322 2.8442-2.4322 4.8644-0.00002 1.8873 0.94361 3.4689 2.8309 4.7447 1.9138 1.2759 4.7181 2.4721 8.4129 3.5884 6.8047 2.0468 11.762 4.5852 14.872 7.6156 3.11 3.0302 4.665 6.8048 4.665 11.324-0.00005 5.0239-1.9006 8.9712-5.7017 11.842-3.8011 2.8442-8.918 4.2663-15.351 4.2663-4.4657 0-8.5326-0.8107-12.201-2.4322-3.6682-1.648-6.4725-3.8941-8.4129-6.7383-1.9138-2.8442-2.8708-6.1402-2.8708-9.8882h12.001c-0.00001 6.4061 3.8277 9.6091 11.483 9.6091 2.8442 0 5.0637-0.5715 6.6586-1.7145 1.5948-1.1695 2.3923-2.791 2.3923-4.8643"/>
<path d="m383.71 985.69h-17.783v48.364h-11.962v-48.364h-17.544v-9.6888h47.288v9.6888"/>
<path d="m432.31 1008.9h-22.966v15.55h26.953v9.6091h-38.915v-58.053h38.835v9.6888h-26.874v13.835h22.966v9.3698"/>
<path d="m497.34 1034.1h-11.962l-23.285-38.197v38.197h-11.962v-58.053h11.962l23.325 38.277v-38.277h11.922v58.053"/>
</g>
</g>
</svg>
