<?xml version="1.0" encoding="UTF-8" standalone="no"?>
<!-- Created with Inkscape (http://www.inkscape.org/) -->

<svg
   xmlns:dc="http://purl.org/dc/elements/1.1/"
   xmlns:cc="http://creativecommons.org/ns#"
   xmlns:rdf="http://www.w3.org/1999/02/22-rdf-syntax-ns#"
   xmlns:svg="http://www.w3.org/2000/svg"
   xmlns="http://www.w3.org/2000/svg"
   xmlns:xlink="http://www.w3.org/1999/xlink"
   xmlns:sodipodi="http://sodipodi.sourceforge.net/DTD/sodipodi-0.dtd"
   xmlns:inkscape="http://www.inkscape.org/namespaces/inkscape"
   width="500"
   height="110"
   id="svg2"
   version="1.1"
   inkscape:version="0.48.4 r9939"
   sodipodi:docname="icon_soundcloud.svg"
   inkscape:export-filename="/home/jisungk/Github/deepjazz/img/icon_soundcloud.png"
   inkscape:export-xdpi="18"
   inkscape:export-ydpi="18">
  <defs
     id="defs4">
    <linearGradient
       id="linearGradient3880">
      <stop
         style="stop-color:#ff3c02;stop-opacity:1;"
         offset="0"
         id="stop3882" />
      <stop
         style="stop-color:#ff3c02;stop-opacity:0;"
         offset="1"
         id="stop3884" />
    </linearGradient>
    <linearGradient
       id="linearGradient3102">
      <stop
         style="stop-color:#ff3d01;stop-opacity:1;"
         offset="0"
         id="stop3104" />
      <stop
         style="stop-color:#fb7b10;stop-opacity:1"
         offset="1"
         id="stop3106" />
    </linearGradient>
    <linearGradient
       inkscape:collect="always"
       xlink:href="#linearGradient3880"
       id="linearGradient3886"
       x1="524.69983"
       y1="-658.06177"
       x2="532.7616"
       y2="-658.06177"
       gradientUnits="userSpaceOnUse" />
    <linearGradient
       inkscape:collect="always"
       xlink:href="#linearGradient3102"
       id="linearGradient3023"
       gradientUnits="userSpaceOnUse"
       gradientTransform="matrix(0.99999999,0,0,1.1340206,-644.62286,667.52249)"
       x1="591.93823"
       y1="-592.2785"
       x2="591.93823"
       y2="-607.68665" />
  </defs>
  <sodipodi:namedview
     id="base"
     pagecolor="#ffffff"
     bordercolor="#666666"
     borderopacity="1.0"
     inkscape:pageopacity="0.0"
     inkscape:pageshadow="2"
     inkscape:zoom="0.66644815"
     inkscape:cx="110.29224"
     inkscape:cy="43.810471"
     inkscape:document-units="px"
     inkscape:current-layer="layer1"
     showgrid="false"
     inkscape:window-width="1920"
     inkscape:window-height="1025"
     inkscape:window-x="0"
     inkscape:window-y="30"
     inkscape:window-maximized="1" />
  <metadata
     id="metadata7">
    <rdf:RDF>
      <cc:Work
         rdf:about="">
        <dc:format>image/svg+xml</dc:format>
        <dc:type
           rdf:resource="http://purl.org/dc/dcmitype/StillImage" />
        <dc:title />
      </cc:Work>
    </rdf:RDF>
  </metadata>
  <g
     inkscape:label="Layer 1"
     inkscape:groupmode="layer"
     id="layer1"
     transform="translate(0,-942.36218)">
    <path
       id="path3116"
       d="m 2.2995181,1001.4746 c -0.34353,0 -0.6162291,0.2656 -0.6604984,0.6446 l -1.20412592,9.1459 1.20412592,8.9885 c 0.044269,0.3789 0.3169684,0.6428 0.6604984,0.6428 0.3329054,0 0.6038337,-0.262 0.6569569,-0.6392 l 0,0 v 0 c 0,0 0,0 0,0 l 1.4272428,-8.9921 -1.4272428,-9.1478 c -0.051352,-0.3771 -0.3258223,-0.6427 -0.6569569,-0.6427 z m 6.7714368,-4.99719 c -0.056667,-0.39311 -0.3382176,-0.66404 -0.6852892,-0.66404 -0.348844,0 -0.6374785,0.27979 -0.6852891,0.66404 0,0 -1.6184872,14.78769 -1.6184872,14.78769 l 1.6184872,14.4602 c 0.046035,0.3878 0.334676,0.6677 0.6852891,0.6677 0.3453015,0 0.6268542,-0.2728 0.683519,-0.6642 L 10.910788,1011.2651 9.0709549,996.47741 z M 34.577171,982.83715 c -0.664039,0 -1.212979,0.54362 -1.244852,1.23422 l -1.289124,27.20623 1.289124,17.5819 c 0.03364,0.6871 0.580813,1.2289 1.244852,1.2289 0.6605,0 1.20767,-0.5436 1.246624,-1.2324 v 0 l 1.45735,-17.5838 -1.45735,-27.20614 c -0.03895,-0.6906 -0.586124,-1.23423 -1.246624,-1.23423 z m -13.201113,9.45593 c -0.509982,0 -0.926115,0.40727 -0.966842,0.9509 l -1.452034,18.02662 1.452034,17.4402 c 0.03895,0.5401 0.45686,0.9474 0.966842,0.9474 0.504669,0 0.920803,-0.4073 0.965072,-0.9474 l 1.650361,-17.4402 -1.650361,-18.03015 c -0.04427,-0.5401 -0.460401,-0.94737 -0.965072,-0.94737 z m 26.616492,37.79362 c 0.82341,0 1.492762,-0.664 1.526408,-1.514 l 1.264333,-17.2863 -1.262564,-36.22117 c -0.03364,-0.84998 -0.702994,-1.51402 -1.526406,-1.51402 -0.830491,0 -1.501616,0.66581 -1.528178,1.51578 0,0.002 -1.120897,36.21761 -1.120897,36.21761 l 1.120897,17.2934 c 0.02656,0.8429 0.697687,1.5087 1.526407,1.5087 z m 27.464693,0.082 c 1.133295,0 2.068264,-0.9332 2.089513,-2.0807 v 0.018 -0.018 l 0.881845,-16.7905 -0.881845,-41.83274 c -0.01948,-1.14569 -0.956218,-2.08065 -2.089513,-2.08065 -1.135065,0 -2.071804,0.93319 -2.08951,2.08242 l -0.787995,41.81687 c 0,0.026 0.787995,16.8152 0.787995,16.8152 0.01771,1.1369 0.956216,2.0701 2.08951,2.0701 z m -13.836822,-0.066 c 0.986321,0 1.781398,-0.7916 1.807961,-1.8009 v 0.017 l 1.073089,-17.0242 -1.074859,-36.48327 c -0.02657,-1.00934 -0.821639,-1.7991 -1.807962,-1.7991 -0.993402,0 -1.788481,0.78976 -1.80973,1.7991 l -0.954445,36.48507 0.956216,17.0207 c 0.02125,0.9986 0.816326,1.7902 1.80973,1.7902 z m -33.669483,-0.1594 c 0.586126,0 1.060693,-0.4692 1.104962,-1.0873 l 1.55474,-17.5854 -1.55474,-16.72864 c -0.0425,-0.61801 -0.517064,-1.08371 -1.104962,-1.08371 -0.594979,0 -1.069548,0.46924 -1.106733,1.09079 l -1.368808,16.72156 1.368808,17.5836 c 0.03895,0.6199 0.511754,1.0891 1.106733,1.0891 z M 14.854299,1028.98 c 0.428527,0 0.775598,-0.3382 0.82518,-0.8057 l 1.745982,-16.9073 -1.74421,-17.54491 c -0.05135,-0.46925 -0.398425,-0.80748 -0.826952,-0.80748 -0.433839,0 -0.780911,0.33999 -0.825181,0.80748 0,0 -1.537031,17.54491 -1.537031,17.54491 l 1.537031,16.9038 c 0.04249,0.4692 0.389571,0.8092 0.825181,0.8092 z m 53.657972,-54.78069 c -1.071318,0 -1.930143,0.85174 -1.951392,1.94255 l -0.871221,35.15164 0.871221,16.9145 c 0.02125,1.0766 0.878303,1.9283 1.951392,1.9283 1.069547,0 1.923059,-0.85 1.947851,-1.9407 v 0.017 l 0.977467,-16.9144 -0.977467,-35.15702 c -0.0248,-1.08725 -0.878304,-1.93899 -1.947851,-1.93899 z M 41.26007,1030.1218 c 0.740183,0 1.3511,-0.6039 1.386516,-1.3742 l 1.359953,-17.4651 -1.359953,-33.42871 c -0.03718,-0.77206 -0.646333,-1.37411 -1.386516,-1.37411 -0.747265,0 -1.356412,0.60383 -1.388285,1.37411 0,0 -1.204128,33.42871 -1.204128,33.42871 l 1.205898,17.4722 c 0.0301,0.7632 0.63925,1.3671 1.386517,1.3671 z m 15.186152,-1.6486 v 0 l 1.16871,-17.1765 -1.16871,-37.44131 c -0.02833,-0.92966 -0.761432,-1.65922 -1.666298,-1.65922 -0.910177,0 -1.643277,0.72779 -1.668068,1.65922 l -1.037673,37.43941 1.039443,17.1854 c 0.0248,0.9208 0.757891,1.6485 1.666298,1.6485 0.906636,0 1.636194,-0.7277 1.666298,-1.6538 v 0 z m 88.393458,-38.76762 c -2.7748,0 -5.42211,0.56133 -7.83389,1.57244 -1.61141,-18.25313 -16.91797,-32.5716 -35.58902,-32.5716 -4.568585,0 -9.02208,0.89955 -12.954967,2.42065 -1.528177,0.59143 -1.935455,1.20058 -1.949622,2.38169 v 64.27914 c 0.01594,1.2395 0.977467,2.2719 2.186905,2.3941 0.05135,0 55.777584,0.034 56.138824,0.034 11.18421,0 20.25233,-9.0682 20.25233,-20.2541 0,-11.18601 -9.06635,-20.25591 -20.25056,-20.25591 z M 82.372114,963.45249 c -1.216523,0 -2.215238,0.99872 -2.232946,2.22586 l -0.913719,45.62395 0.91549,16.5585 c 0.01595,1.2094 1.014652,2.2065 2.231175,2.2065 1.21298,0 2.211694,-0.9971 2.229403,-2.2242 v 0.019 l 0.993404,-16.5602 -0.993404,-45.62753 c -0.01771,-1.22317 -1.016423,-2.22189 -2.229403,-2.22189 z m -65.58236,79.63881 c -2.395856,-0.5631 -3.04396,-0.8642 -3.04396,-1.8133 0,-0.6694 0.540087,-1.3617 2.158573,-1.3617 1.382974,0 2.463146,0.5613 3.43353,1.5548 l 2.179821,-2.1144 c -1.425471,-1.4892 -3.151976,-2.3746 -5.503563,-2.3746 -2.981982,0 -5.399087,1.684 -5.399087,4.427 0,2.9784 1.944309,3.8638 4.727964,4.5101 2.849174,0.6463 3.368011,1.0803 3.368011,2.0523 0,1.1439 -0.844658,1.6415 -2.63314,1.6415 -1.446721,0 -2.806676,-0.4957 -3.865597,-1.73 l -2.179823,1.9444 c 1.143921,1.6839 3.348533,2.7411 5.871884,2.7411 4.125902,0 5.939174,-1.9425 5.939174,-4.813 0,-3.283 -2.65616,-4.1029 -5.053787,-4.6642 z m 13.907653,-6.1092 c -4.12236,0 -6.560715,3.1945 -6.560715,7.7931 0,4.5988 2.438355,7.7915 6.560715,7.7915 4.12236,0 6.564257,-3.1927 6.564257,-7.7915 0,-4.5986 -2.441897,-7.7931 -6.564257,-7.7931 z m 0,12.5867 c -2.438355,0 -3.454778,-2.0948 -3.454778,-4.7918 0,-2.6986 1.016423,-4.7935 3.454778,-4.7935 2.441897,0 3.454779,2.0949 3.454779,4.7935 0,2.697 -1.012882,4.7918 -3.454779,4.7918 z m 18.763114,-3.8639 c 0,2.4171 -1.18996,3.9081 -3.109478,3.9081 -1.921289,0 -3.086458,-1.5335 -3.086458,-3.9505 v -8.4449 h -3.02448 v 8.4873 c 0,4.4022 2.463145,6.8636 6.11094,6.8636 3.842576,0 6.132187,-2.5269 6.132187,-6.906 v -8.4449 h -3.022709 v 8.4873 z m 16.060914,-2.0948 c 0,0.8429 0.0425,2.7412 0.0425,3.3025 -0.194784,-0.3895 -0.690601,-1.1439 -1.057152,-1.707 l -5.356589,-7.9898 h -2.891673 v 15.1154 h 2.980213 v -6.6511 c 0,-0.8429 -0.0425,-2.7411 -0.0425,-3.3024 0.193014,0.3878 0.692372,1.1439 1.057151,1.707 l 5.549604,8.2465 h 2.698658 v -15.1154 h -2.980211 v 6.3943 z m 11.593253,-6.3925 h -4.727965 v 15.1153 h 4.510159 c 3.886848,0 7.731196,-2.247 7.731196,-7.5577 0,-5.5283 -3.196245,-7.5576 -7.51339,-7.5576 z m -0.217806,12.1794 h -1.487449 v -9.2416 h 1.597237 c 3.196245,0 4.513702,1.5316 4.513702,4.6198 0,2.7643 -1.448493,4.6218 -4.62349,4.6218 z m 17.079108,-9.4152 c 1.359954,0 2.224091,0.6056 2.764177,1.6415 l 2.806675,-1.2944 c -0.950907,-1.9638 -2.679179,-3.3468 -5.528353,-3.3468 -3.947053,0 -6.713002,3.1945 -6.713002,7.7931 0,4.7705 2.654389,7.7915 6.604985,7.7915 2.742929,0 4.556196,-1.2732 5.592103,-3.4106 l -2.546373,-1.5121 c -0.798619,1.3404 -1.599008,1.923 -2.958963,1.923 -2.266589,0 -3.584044,-2.0736 -3.584044,-4.7918 -0.0018,-2.8048 1.297976,-4.7934 3.562795,-4.7934 z m 11.21077,-2.7642 h -3.02272 v 15.1153 h 9.08408 v -2.9819 h -6.06136 v -12.1334 z m 14.02452,-0.2355 c -4.1259,0 -6.56425,3.1945 -6.56425,7.7931 0,4.5988 2.43835,7.7915 6.56425,7.7915 4.12237,0 6.56249,-3.1927 6.56249,-7.7915 0,-4.5986 -2.44012,-7.7931 -6.56249,-7.7931 z m 0,12.5867 c -2.44189,0 -3.45477,-2.0948 -3.45477,-4.7918 0,-2.6986 1.01288,-4.7935 3.45477,-4.7935 2.43658,0 3.45123,2.0949 3.45123,4.7935 0,2.697 -1.01465,4.7918 -3.45123,4.7918 z m 18.75957,-3.8639 c 0,2.4171 -1.18464,3.9081 -3.10593,3.9081 -1.92483,0 -3.08823,-1.5335 -3.08823,-3.9505 v -8.4449 h -3.02271 v 8.4873 c 0,4.4022 2.46137,6.8636 6.11094,6.8636 3.84258,0 6.13041,-2.5269 6.13041,-6.906 v -8.4449 h -3.02448 v 8.4873 z m 11.52951,-8.4873 h -4.7262 v 15.1153 h 4.51017 c 3.88862,0 7.72943,-2.247 7.72943,-7.5577 0,-5.5283 -3.19449,-7.5576 -7.5134,-7.5576 z m -0.21603,12.1794 h -1.48922 v -9.2416 h 1.599 c 3.19271,0 4.51016,1.5316 4.51016,4.6198 0,2.7643 -1.44672,4.6218 -4.61994,4.6218 z"
       inkscape:connector-curvature="0"
       style="fill:#ffffff" />
    <g
       style="font-size:81.65731812px;font-style:normal;font-weight:normal;line-height:125%;letter-spacing:0px;word-spacing:0px;fill:#ffffff;fill-opacity:1;stroke:none;font-family:Sans"
       id="text2991"
       transform="translate(0,2)">
      <path
         d="m 213.34902,1024.4461 25.3983,0 0,9.6091 -37.35982,0 0,-58.05327 11.96152,0 0,48.44417"
         style="font-variant:normal;font-weight:bold;font-stretch:normal;letter-spacing:6.81479359px;fill:#ffffff;font-family:Roboto;-inkscape-font-specification:Roboto Bold"
         id="path3000"
         inkscape:connector-curvature="0" />
      <path
         d="m 265.09926,1034.0552 -11.96152,0 0,-58.05327 11.96152,0 0,58.05327"
         style="font-variant:normal;font-weight:bold;font-stretch:normal;letter-spacing:6.81479359px;fill:#ffffff;font-family:Roboto;-inkscape-font-specification:Roboto Bold"
         id="path3002"
         inkscape:connector-curvature="0" />
      <path
         d="m 313.0617,1018.8242 c -4e-5,-2.2594 -0.79747,-3.9872 -2.39231,-5.1834 -1.5949,-1.2227 -4.46566,-2.4986 -8.61229,-3.8276 -4.14669,-1.3557 -7.42946,-2.6847 -9.84832,-3.9872 -6.59214,-3.5619 -9.8882,-8.35975 -9.88819,-14.39371 -10e-6,-3.13653 0.87717,-5.92755 2.63153,-8.37307 1.78093,-2.47199 4.31943,-4.39912 7.6155,-5.7814 3.32263,-1.38216 7.04399,-2.07327 11.16409,-2.07333 4.14663,6e-5 7.84141,0.75762 11.08434,2.27269 3.24286,1.4886 5.75478,3.6018 7.53576,6.33961 1.80747,2.7379 2.71123,5.8479 2.71128,9.32998 l -11.96152,0 c -4e-5,-2.65807 -0.83734,-4.71811 -2.51192,-6.18012 -1.67465,-1.48849 -4.02708,-2.23276 -7.0573,-2.23281 -2.92395,5e-5 -5.19664,0.6247 -6.81807,1.87397 -1.62147,1.22278 -2.43219,2.84423 -2.43217,4.86435 -2e-5,1.8873 0.94361,3.46888 2.83089,4.74474 1.91382,1.27593 4.71813,2.47208 8.41294,3.58845 6.80474,2.04675 11.76212,4.58525 14.87215,7.61555 3.10995,3.0302 4.66495,6.8048 4.665,11.3235 -5e-5,5.0239 -1.9006,8.9712 -5.70166,11.8419 -3.80114,2.8442 -8.91801,4.2663 -15.35062,4.2663 -4.46566,0 -8.53257,-0.8107 -12.20075,-2.4322 -3.66821,-1.648 -6.47252,-3.8941 -8.41294,-6.7383 -1.91384,-2.8442 -2.87077,-6.1402 -2.87076,-9.8882 l 12.00139,0 c -1e-5,6.4061 3.82767,9.6091 11.48306,9.6091 2.84416,0 5.06368,-0.5715 6.65858,-1.7145 1.59484,-1.1695 2.39227,-2.791 2.39231,-4.8643"
         style="font-variant:normal;font-weight:bold;font-stretch:normal;letter-spacing:6.81479359px;fill:#ffffff;font-family:Roboto;-inkscape-font-specification:Roboto Bold"
         id="path3004"
         inkscape:connector-curvature="0" />
      <path
         d="m 383.71113,985.69076 -17.78279,0 0,48.36444 -11.96152,0 0,-48.36444 -17.54357,0 0,-9.68883 47.28788,0 0,9.68883"
         style="font-variant:normal;font-weight:bold;font-stretch:normal;letter-spacing:6.81479359px;fill:#ffffff;font-family:Roboto;-inkscape-font-specification:Roboto Bold"
         id="path3006"
         inkscape:connector-curvature="0" />
      <path
         d="m 432.31151,1008.8961 -22.96612,0 0,15.55 26.9533,0 0,9.6091 -38.91482,0 0,-58.05327 38.83507,0 0,9.68883 -26.87355,0 0,13.83549 22.96612,0 0,9.36985"
         style="font-variant:normal;font-weight:bold;font-stretch:normal;letter-spacing:6.81479359px;fill:#ffffff;font-family:Roboto;-inkscape-font-specification:Roboto Bold"
         id="path3008"
         inkscape:connector-curvature="0" />
      <path
         d="m 497.33903,1034.0552 -11.96152,0 -23.28509,-38.19715 0,38.19715 -11.96152,0 0,-58.05327 11.96152,0 23.32496,38.27687 0,-38.27687 11.92165,0 0,58.05327"
         style="font-variant:normal;font-weight:bold;font-stretch:normal;letter-spacing:6.81479359px;fill:#ffffff;font-family:Roboto;-inkscape-font-specification:Roboto Bold"
         id="path3010"
         inkscape:connector-curvature="0" />
    </g>
  </g>
</svg>
