<?xml version="1.0" encoding="UTF-8" standalone="no"?>
<!-- Created with Inkscape (http://www.inkscape.org/) -->

<svg
   xmlns:dc="http://purl.org/dc/elements/1.1/"
   xmlns:cc="http://creativecommons.org/ns#"
   xmlns:rdf="http://www.w3.org/1999/02/22-rdf-syntax-ns#"
   xmlns:svg="http://www.w3.org/2000/svg"
   xmlns="http://www.w3.org/2000/svg"
   xmlns:sodipodi="http://sodipodi.sourceforge.net/DTD/sodipodi-0.dtd"
   xmlns:inkscape="http://www.inkscape.org/namespaces/inkscape"
   width="1200"
   height="300"
   id="svg2"
   version="1.1"
   inkscape:version="0.48.4 r9939"
   sodipodi:docname="logo_white.svg"
   inkscape:export-filename="/home/jisungk/Github/deepjazz/svg/deepjazz_logo.png"
   inkscape:export-xdpi="90"
   inkscape:export-ydpi="90">
  <defs
     id="defs4" />
  <sodipodi:namedview
     id="base"
     pagecolor="#ffffff"
     bordercolor="#666666"
     borderopacity="1.0"
     inkscape:pageopacity="0.0"
     inkscape:pageshadow="2"
     inkscape:zoom="0.88859752"
     inkscape:cx="600"
     inkscape:cy="150"
     inkscape:document-units="px"
     inkscape:current-layer="layer1"
     showgrid="false"
     inkscape:window-width="1920"
     inkscape:window-height="1025"
     inkscape:window-x="0"
     inkscape:window-y="30"
     inkscape:window-maximized="1" />
  <metadata
     id="metadata7">
    <rdf:RDF>
      <cc:Work
         rdf:about="">
        <dc:format>image/svg+xml</dc:format>
        <dc:type
           rdf:resource="http://purl.org/dc/dcmitype/StillImage" />
        <dc:title />
      </cc:Work>
    </rdf:RDF>
  </metadata>
  <g
     inkscape:label="Layer 1"
     inkscape:groupmode="layer"
     id="layer1"
     transform="translate(0,-752.36218)">
    <flowRoot
       xml:space="preserve"
       id="flowRoot3027"
       style="font-size:40px;font-style:normal;font-weight:normal;line-height:125%;letter-spacing:0px;word-spacing:0px;fill:#000000;fill-opacity:1;stroke:none;font-family:Sans"
       transform="translate(0,422.36218)"><flowRegion
         id="flowRegion3029"><rect
           id="rect3031"
           width="1617.1428"
           height="1108.5714"
           x="-1454.2858"
           y="-332.85715" /></flowRegion><flowPara
         id="flowPara3033" /></flowRoot>    <g
       style="font-size:300.94384766px;font-style:normal;font-weight:normal;line-height:125%;letter-spacing:0px;word-spacing:0px;fill:#000000;fill-opacity:1;stroke:none;font-family:Roboto;-inkscape-font-specification:Roboto"
       id="text2985-3-7-8">
      <path
         d="m 10.382195,902.2887 c -1.4e-5,-24.3928 5.779826,-43.98548 17.339538,-58.77809 11.559649,-14.8903 26.694994,-22.33552 45.406079,-22.33568 18.612968,1.6e-4 33.356458,6.36778 44.230518,19.10288 l 0,-82.87711 27.18487,0 0,225.70788 -24.98069,0 L 118.24,966.06293 C 107.36594,979.38597 92.230597,986.04748 72.833921,986.04749 54.416727,986.04748 39.379346,978.5043 27.721733,963.41792 16.162021,948.33158 10.382181,928.64093 10.382195,904.34593 l 0,-2.05723 m 27.184869,3.08585 c -4.1e-5,18.02534 3.722568,32.13207 11.167838,42.32023 7.445166,10.18823 17.731322,15.28232 30.8585,15.2823 17.241474,2e-5 29.829768,-7.73908 37.764928,-23.21734 l 0,-73.03179 c -8.13108,-14.98828 -20.621417,-22.48248 -37.471037,-22.48262 -13.323105,1.4e-4 -23.707225,5.14322 -31.152391,15.42925 -7.44527,10.28628 -11.167879,25.51959 -11.167838,45.69997"
         style="fill:#ffffff"
         id="path3128" />
      <path
         d="m 252.84184,986.04749 c -21.55203,-1e-5 -39.08748,-7.05337 -52.60639,-21.16012 C 186.71646,950.6827 179.95699,931.72678 179.957,908.01956 l 0,-4.99613 c -1e-5,-15.77203 2.98787,-29.82978 8.96366,-42.17329 6.07371,-12.44123 14.49856,-22.1396 25.27458,-29.09515 10.87389,-7.05322 22.6295,-10.5799 35.26686,-10.58006 20.67019,1.6e-4 36.73619,6.80862 48.19804,20.42539 11.46158,13.61705 17.19244,33.11177 17.19259,58.4842 l 0,11.31479 -107.71086,0 c 0.39181,15.67421 4.94711,28.36047 13.66591,38.05881 8.81665,9.60045 19.98448,14.40065 33.50351,14.40064 9.60033,1e-5 17.73129,-1.95925 24.39291,-5.87781 6.6614,-3.91851 12.49022,-9.11057 17.48649,-15.5762 l 16.60481,12.93118 c -13.32317,20.47438 -33.3077,30.71155 -59.95366,30.71156 M 249.4621,843.51061 c -10.97198,1.3e-4 -20.18054,4.01663 -27.6257,12.0495 -7.44528,7.93517 -12.04956,19.10299 -13.81286,33.50352 l 79.64432,0 0,-2.05723 c -0.78383,-13.81275 -4.50644,-24.49076 -11.16784,-32.03407 -6.66162,-7.64101 -15.67425,-11.46159 -27.03792,-11.46172"
         style="fill:#ffffff"
         id="path3130" />
      <path
         d="m 412.13049,986.04749 c -21.55203,-1e-5 -39.08748,-7.05337 -52.60639,-21.16012 -13.51899,-14.20467 -20.27846,-33.16059 -20.27845,-56.86781 l 0,-4.99613 c -1e-5,-15.77203 2.98787,-29.82978 8.96366,-42.17329 6.07371,-12.44123 14.49856,-22.1396 25.27458,-29.09515 10.87389,-7.05322 22.6295,-10.5799 35.26686,-10.58006 20.67019,1.6e-4 36.73619,6.80862 48.19804,20.42539 11.46158,13.61705 17.19244,33.11177 17.19259,58.4842 l 0,11.31479 -107.71086,0 c 0.39181,15.67421 4.94711,28.36047 13.66591,38.05881 8.81665,9.60045 19.98448,14.40065 33.50351,14.40064 9.60033,1e-5 17.73129,-1.95925 24.39291,-5.87781 6.6614,-3.91851 12.49022,-9.11057 17.48649,-15.5762 l 16.60481,12.93118 c -13.32317,20.47438 -33.3077,30.71155 -59.95366,30.71156 m -3.37974,-142.53688 c -10.97198,1.3e-4 -20.18054,4.01663 -27.6257,12.0495 -7.44528,7.93517 -12.04956,19.10299 -13.81286,33.50352 l 79.64432,0 0,-2.05723 c -0.78383,-13.81275 -4.50643,-24.49076 -11.16784,-32.03407 -6.66162,-7.64101 -15.67425,-11.46159 -27.03792,-11.46172"
         style="fill:#ffffff"
         id="path3132" />
      <path
         d="m 639.74866,905.37455 c -1.5e-4,24.19704 -5.53508,43.69175 -16.60481,58.48421 -11.07,14.79249 -26.0584,22.18872 -44.96524,22.18873 -19.29888,-1e-5 -34.48321,-6.12272 -45.55303,-18.36816 l 0,76.55847 -27.18487,0 0,-220.12397 24.83375,0 1.32251,17.63343 c 11.06981,-13.71473 26.45007,-20.57217 46.1408,-20.57233 19.10277,1.6e-4 34.18913,7.20047 45.25914,21.60095 11.16768,14.40076 16.7516,34.43427 16.75175,60.1006 l 0,2.49807 m -27.18487,-3.08585 c -1.2e-4,-17.92722 -3.8207,-32.08293 -11.46173,-42.46717 -7.64126,-10.384 -18.12334,-15.57606 -31.44628,-15.5762 -16.45793,1.4e-4 -28.80132,7.29841 -37.0302,21.89484 l 0,75.97069 c 8.13092,14.49862 20.57227,21.74791 37.32409,21.7479 13.02905,1e-5 23.36419,-5.14306 31.00545,-15.42925 7.73899,-10.38409 11.60855,-25.76434 11.60867,-46.14081"
         style="fill:#ffffff"
         id="path3134" />
      <path
         d="m 714.83766,824.11383 0,167.66452 c -6e-5,17.53545 -4.65332,31.15235 -13.9598,40.85075 -9.30657,9.7963 -22.72755,14.6945 -40.26299,14.6946 -7.34726,-10e-5 -14.35165,-0.8328 -21.01317,-2.4981 l 0,-33.6505 c 5.09411,0.8817 9.55144,1.3225 13.37202,1.3225 12.8332,0 19.2498,-6.8085 19.24982,-20.42536 l 0,-167.95841 42.61412,0 M 668.8438,782.96917 c -10e-6,-6.36742 2.1062,-11.60846 6.31865,-15.72314 4.31036,-4.11425 10.13919,-6.17148 17.48648,-6.1717 7.34722,2.2e-4 13.12706,2.05745 17.33954,6.1717 4.31033,4.11468 6.46553,9.35572 6.46559,15.72314 -6e-5,6.46578 -2.20424,11.7558 -6.61254,15.87008 -4.31044,4.11465 -10.0413,6.17188 -17.19259,6.1717 -7.15137,1.8e-4 -12.93121,-2.05705 -17.33954,-6.1717 -4.31041,-4.11428 -6.4656,-9.4043 -6.46559,-15.87008"
         style="font-weight:bold;fill:#7bd4ea;font-family:Roboto;-inkscape-font-specification:Roboto"
         id="path3136" />
      <path
         d="m 840.18195,983.10858 c -1.95938,-3.82057 -3.37985,-8.5718 -4.26141,-14.25369 -10.28626,11.46173 -23.65827,17.19259 -40.11605,17.1926 -15.57625,-1e-5 -28.50742,-4.50632 -38.79355,-13.51897 -10.18822,-9.01262 -15.28231,-20.37637 -15.2823,-34.09129 -1e-5,-16.84966 6.22066,-29.78083 18.66204,-38.79354 12.53929,-9.01255 30.61354,-13.56785 54.2228,-13.66591 l 19.54371,0 0,-9.11061 c -10e-5,-7.34714 -1.91039,-13.22495 -5.73086,-17.63342 -3.72271,-4.40823 -9.64949,-6.61241 -17.78037,-6.61254 -7.15141,1.3e-4 -12.78431,1.71449 -16.89871,5.14308 -4.01656,3.42885 -6.02481,8.13109 -6.02475,14.10675 l -42.46718,0 c -10e-6,-9.20845 2.84093,-17.73127 8.52283,-25.56848 5.68185,-7.83693 13.71485,-13.95964 24.09902,-18.36815 10.38407,-4.50616 22.04171,-6.75932 34.97296,-6.75948 19.5926,1.6e-4 35.1198,4.94731 46.58164,14.84147 11.55956,9.79648 17.3394,23.60932 17.33954,41.43856 l 0,68.91731 c 0.0978,15.0864 2.20403,26.49914 6.31865,34.23824 l 0,2.49807 -42.90801,0 m -35.11991,-29.53599 c 6.26958,3e-5 12.04942,-1.37146 17.33953,-4.11447 5.28994,-2.8409 9.20847,-6.61249 11.75562,-11.31478 l 0,-27.33182 -15.87008,0 c -21.25815,8e-5 -32.57292,7.34733 -33.94435,22.04179 l -0.14695,2.49807 c -5e-5,5.29007 1.86125,9.64944 5.58392,13.07813 3.72255,3.42875 8.81665,5.14311 15.28231,5.14308"
         style="font-weight:bold;fill:#7bd4ea;font-family:Roboto;-inkscape-font-specification:Roboto"
         id="path3138" />
      <path
         d="m 958.47287,948.87034 77.73403,0 0,34.23824 -131.95682,0 0,-25.86236 74.79513,-98.7472 -72.59095,0 0,-34.38519 127.40154,0 0,25.12764 -75.38293,99.62887"
         style="font-weight:bold;fill:#7bd4ea;font-family:Roboto;-inkscape-font-specification:Roboto"
         id="path3140" />
      <path
         d="m 1111.8836,948.87034 77.7341,0 0,34.23824 -131.9569,0 0,-25.86236 74.7952,-98.7472 -72.591,0 0,-34.38519 127.4015,0 0,25.12764 -75.3829,99.62887"
         style="font-weight:bold;fill:#7bd4ea;font-family:Roboto;-inkscape-font-specification:Roboto"
         id="path3142" />
    </g>
  </g>
</svg>
