<?xml version="1.0" encoding="UTF-8" standalone="no"?>
<svg xmlns:rdf="http://www.w3.org/1999/02/22-rdf-syntax-ns#" xmlns="http://www.w3.org/2000/svg" version="1.1" xmlns:cc="http://creativecommons.org/ns#" xmlns:dc="http://purl.org/dc/elements/1.1/" viewBox="0 0 1200 300">
<metadata>
<rdf:RDF>
<cc:Work rdf:about="">
<dc:format>image/svg+xml</dc:format>
<dc:type rdf:resource="http://purl.org/dc/dcmitype/StillImage"/>
<dc:title/>
</cc:Work>
</rdf:RDF>
</metadata>
<g transform="translate(0 -752.36)">
<flowRoot style="word-spacing:0px;letter-spacing:0px" line-height="125%" xml:space="preserve" font-size="40px" transform="translate(0 422.36)" font-family="Sans" fill="#000000"><flowRegion><rect y="-332.86" width="1617.1" x="-1454.3" height="1108.6"/></flowRegion><flowPara/></flowRoot>
<path fill="#fff" d="m10.382 902.29c-0.000014-24.393 5.7798-43.985 17.34-58.778 11.56-14.89 26.695-22.336 45.406-22.336 18.613 0.00016 33.356 6.3678 44.231 19.103v-82.877h27.185v225.71h-24.981l-1.32-17.05c-10.87 13.33-26.009 19.99-45.406 19.99-18.417 0-33.455-7.55-45.112-22.63-11.56-15.09-17.34-34.78-17.34-59.07v-2.0572m27.185 3.0858c-0.000041 18.025 3.7226 32.132 11.168 42.32 7.4452 10.188 17.731 15.282 30.858 15.282 17.241 0.00002 29.83-7.7391 37.765-23.217v-73.032c-8.1311-14.988-20.621-22.482-37.471-22.483-13.323 0.00014-23.707 5.1432-31.152 15.429-7.4453 10.286-11.168 25.52-11.168 45.7"/>
<path fill="#fff" d="m252.84 986.05c-21.552-0.00001-39.087-7.0534-52.606-21.16-13.51-14.21-20.27-33.16-20.27-56.87v-4.9961c-0.00001-15.772 2.9879-29.83 8.9637-42.173 6.0737-12.441 14.499-22.14 25.275-29.095 10.874-7.0532 22.63-10.58 35.267-10.58 20.67 0.00016 36.736 6.8086 48.198 20.425 11.462 13.617 17.192 33.112 17.193 58.484v11.315h-107.71c0.39181 15.674 4.9471 28.36 13.666 38.059 8.8166 9.6004 19.984 14.401 33.504 14.401 9.6003 0.00001 17.731-1.9592 24.393-5.8778 6.6614-3.9185 12.49-9.1106 17.486-15.576l16.605 12.931c-13.323 20.474-33.308 30.712-59.954 30.712m-3.39-142.54c-10.972 0.00013-20.181 4.0166-27.626 12.05-7.4453 7.9352-12.05 19.103-13.813 33.504h79.644v-2.0572c-0.78383-13.813-4.5064-24.491-11.168-32.034-6.6616-7.641-15.674-11.462-27.038-11.462"/>
<path fill="#fff" d="m412.13 986.05c-21.552-0.00001-39.087-7.0534-52.606-21.16-13.519-14.205-20.278-33.161-20.278-56.868v-4.9961c-0.00001-15.772 2.9879-29.83 8.9637-42.173 6.0737-12.441 14.499-22.14 25.275-29.095 10.874-7.0532 22.63-10.58 35.267-10.58 20.67 0.00016 36.736 6.8086 48.198 20.425 11.462 13.617 17.192 33.112 17.193 58.484v11.315h-107.71c0.39181 15.674 4.9471 28.36 13.666 38.059 8.8166 9.6004 19.984 14.401 33.504 14.401 9.6003 0.00001 17.731-1.9592 24.393-5.8778 6.6614-3.9185 12.49-9.1106 17.486-15.576l16.605 12.931c-13.323 20.474-33.308 30.712-59.954 30.712m-3.3797-142.54c-10.972 0.00013-20.181 4.0166-27.626 12.05-7.4453 7.9352-12.05 19.103-13.813 33.504h79.644v-2.0572c-0.78383-13.813-4.5064-24.491-11.168-32.034-6.6616-7.641-15.674-11.462-27.038-11.462"/>
<path fill="#fff" d="m639.75 905.37c-0.00015 24.197-5.5351 43.692-16.605 58.484s-26.058 22.189-44.965 22.189c-19.299-0.00001-34.483-6.1227-45.553-18.368v76.558h-27.185v-220.12h24.834l1.3225 17.633c11.07-13.715 26.45-20.572 46.141-20.572 19.103 0.00016 34.189 7.2005 45.259 21.601 11.168 14.401 16.752 34.434 16.752 60.101v2.4981m-27.185-3.0858c-0.00012-17.927-3.8207-32.083-11.462-42.467s-18.123-15.576-31.446-15.576c-16.458 0.00014-28.801 7.2984-37.03 21.895v75.971c8.1309 14.499 20.572 21.748 37.324 21.748 13.029 0.00001 23.364-5.1431 31.005-15.429 7.739-10.384 11.609-25.764 11.609-46.141"/>
<path fill="#7bd4ea" d="m714.84 824.11v167.66c-0.00006 17.535-4.6533 31.152-13.96 40.851-9.3066 9.7963-22.728 14.694-40.263 14.695-7.3473-0.0001-14.352-0.8328-21.013-2.4981v-33.65c5.0941 0.8817 9.5514 1.3225 13.372 1.3225 12.833 0 19.25-6.8085 19.25-20.425v-167.96h42.614m-45.99-41.17c-0.00001-6.3674 2.1062-11.608 6.3186-15.723 4.3104-4.1142 10.139-6.1715 17.486-6.1717 7.3472 0.00022 13.127 2.0574 17.34 6.1717 4.3103 4.1147 6.4655 9.3557 6.4656 15.723-0.00006 6.4658-2.2042 11.756-6.6125 15.87-4.3104 4.1146-10.041 6.1719-17.193 6.1717-7.1514 0.00018-12.931-2.057-17.34-6.1717-4.3104-4.1143-6.4656-9.4043-6.4656-15.87"/>
<path fill="#7bd4ea" d="m840.18 983.11c-1.9594-3.8206-3.3798-8.5718-4.2614-14.254-10.286 11.462-23.658 17.193-40.116 17.193-15.576-0.00001-28.507-4.5063-38.794-13.519-10.188-9.0126-15.282-20.376-15.282-34.091-0.00001-16.85 6.2207-29.781 18.662-38.794 12.539-9.0126 30.614-13.568 54.223-13.666h19.544v-9.1106c-0.0001-7.3471-1.9104-13.225-5.7309-17.633-3.7227-4.4082-9.6495-6.6124-17.78-6.6125-7.1514 0.00013-12.784 1.7145-16.899 5.1431-4.0166 3.4288-6.0248 8.1311-6.0248 14.107h-42.467c-0.00001-9.2084 2.8409-17.731 8.5228-25.568 5.6818-7.8369 13.715-13.96 24.099-18.368 10.384-4.5062 22.042-6.7593 34.973-6.7595 19.593 0.00016 35.12 4.9473 46.582 14.841 11.56 9.7965 17.339 23.609 17.34 41.439v68.917c0.0978 15.086 2.204 26.499 6.3186 34.238v2.4981h-42.908m-35.12-29.536c6.2696 0.00003 12.049-1.3715 17.34-4.1145 5.2899-2.8409 9.2085-6.6125 11.756-11.315v-27.332h-15.87c-21.258 0.00008-32.573 7.3473-33.944 22.042l-0.14695 2.4981c-0.00005 5.2901 1.8612 9.6494 5.5839 13.078 3.7226 3.4288 8.8166 5.1431 15.282 5.1431"/>
<path fill="#7bd4ea" d="m958.47 948.87h77.734v34.238h-131.96v-25.862l74.795-98.747h-72.591v-34.385h127.4v25.128l-75.383 99.629"/>
<path fill="#7bd4ea" d="m1111.9 948.87h77.734v34.238h-131.96v-25.862l74.795-98.747h-72.591v-34.385h127.4v25.128l-75.383 99.629"/>
</g>
</svg>
